  0
SECTION
  2
HEADER
  9
$ACADVER
  1
AC1024
  9
$ACADMAINTVER
 70
6
  9
$DWGCODEPAGE
  3
ANSI_1252
  9
$LASTSAVEDBY
  1
ezdxf
  9
$INSBASE
 10
0.0
 20
0.0
 30
0.0
  9
$EXTMIN
 10
1e+20
 20
1e+20
 30
1e+20
  9
$EXTMAX
 10
-1e+20
 20
-1e+20
 30
-1e+20
  9
$LIMMIN
 10
0.0
 20
0.0
  9
$LIMMAX
 10
420.0
 20
297.0
  9
$ORTHOMODE
 70
0
  9
$REGENMODE
 70
1
  9
$FILLMODE
 70
1
  9
$QTEXTMODE
 70
0
  9
$MIRRTEXT
 70
1
  9
$LTSCALE
 40
1.0
  9
$ATTMODE
 70
1
  9
$TEXTSIZE
 40
2.5
  9
$TRACEWID
 40
1.0
  9
$TEXTSTYLE
  7
OpenSans
  9
$CLAYER
  8
0
  9
$CELTYPE
  6
ByLayer
  9
$CECOLOR
 62
256
  9
$CELTSCALE
 40
1.0
  9
$DISPSILH
 70
0
  9
$DIMSCALE
 40
1.0
  9
$DIMASZ
 40
0.175
  9
$DIMEXO
 40
0.125
  9
$DIMDLI
 40
3.75
  9
$DIMRND
 40
0.0
  9
$DIMDLE
 40
0.0
  9
$DIMEXE
 40
0.375
  9
$DIMTP
 40
0.0
  9
$DIMTM
 40
0.0
  9
$DIMTXT
 40
0.25
  9
$DIMCEN
 40
2.5
  9
$DIMTSZ
 40
0.0
  9
$DIMTOL
 70
0
  9
$DIMLIM
 70
0
  9
$DIMTIH
 70
0
  9
$DIMTOH
 70
0
  9
$DIMSE1
 70
0
  9
$DIMSE2
 70
0
  9
$DIMTAD
 70
1
  9
$DIMZIN
 70
12
  9
$DIMBLK
  1
ARCHTICK
  9
$DIMASO
 70
1
  9
$DIMSHO
 70
1
  9
$DIMPOST
  1

  9
$DIMAPOST
  1

  9
$DIMALT
 70
0
  9
$DIMALTD
 70
3
  9
$DIMALTF
 40
0.03937007874
  9
$DIMLFAC
 40
100.0
  9
$DIMTOFL
 70
1
  9
$DIMTVP
 40
0.0
  9
$DIMTIX
 70
0
  9
$DIMSOXD
 70
0
  9
$DIMSAH
 70
0
  9
$DIMBLK1
  1

  9
$DIMBLK2
  1

  9
$DIMSTYLE
  2
EZDXF
  9
$DIMCLRD
 70
0
  9
$DIMCLRE
 70
0
  9
$DIMCLRT
 70
0
  9
$DIMTFAC
 40
0.5
  9
$DIMGAP
 40
0.1
  9
$DIMJUST
 70
0
  9
$DIMSD1
 70
0
  9
$DIMSD2
 70
0
  9
$DIMTOLJ
 70
0
  9
$DIMTZIN
 70
8
  9
$DIMALTZ
 70
0
  9
$DIMALTTZ
 70
0
  9
$DIMUPT
 70
1
  9
$DIMDEC
 70
2
  9
$DIMTDEC
 70
2
  9
$DIMALTU
 70
2
  9
$DIMALTTD
 70
3
  9
$DIMTXSTY
  7
OpenSansCondensed-Light
  9
$DIMAUNIT
 70
0
  9
$DIMADEC
 70
2
  9
$DIMALTRND
 40
0.0
  9
$DIMAZIN
 70
3
  9
$DIMDSEP
 70
46
  9
$DIMATFIT
 70
3
  9
$DIMFRAC
 70
0
  9
$DIMLDRBLK
  1

  9
$DIMLUNIT
 70
2
  9
$DIMLWD
 70
-2
  9
$DIMLWE
 70
-2
  9
$DIMTMOVE
 70
2
  9
$DIMFXL
 40
1.0
  9
$DIMFXLON
 70
0
  9
$DIMJOGANG
 40
0.785398163397
  9
$DIMTFILL
 70
0
  9
$DIMTFILLCLR
 70
0
  9
$DIMARCSYM
 70
0
  9
$DIMLTYPE
  6

  9
$DIMLTEX1
  6

  9
$DIMLTEX2
  6

  9
$DIMTXTDIRECTION
 70
0
  9
$LUNITS
 70
2
  9
$LUPREC
 70
4
  9
$SKETCHINC
 40
1.0
  9
$FILLETRAD
 40
10.0
  9
$AUNITS
 70
0
  9
$AUPREC
 70
2
  9
$MENU
  1
.
  9
$ELEVATION
 40
0.0
  9
$PELEVATION
 40
0.0
  9
$THICKNESS
 40
0.0
  9
$LIMCHECK
 70
0
  9
$CHAMFERA
 40
0.0
  9
$CHAMFERB
 40
0.0
  9
$CHAMFERC
 40
0.0
  9
$CHAMFERD
 40
0.0
  9
$SKPOLY
 70
0
  9
$TDCREATE
 40
2461315.684537037
  9
$TDUCREATE
 40
2458532.153996898
  9
$TDUPDATE
 40
2461315.684537037
  9
$TDUUPDATE
 40
2458532.1544311
  9
$TDINDWG
 40
0.0
  9
$TDUSRTIMER
 40
0.0
  9
$USRTIMER
 70
1
  9
$ANGBASE
 50
0.0
  9
$ANGDIR
 70
0
  9
$PDMODE
 70
0
  9
$PDSIZE
 40
0.0
  9
$PLINEWID
 40
0.0
  9
$SPLFRAME
 70
0
  9
$SPLINETYPE
 70
6
  9
$SPLINESEGS
 70
8
  9
$HANDSEED
  5
F2
  9
$SURFTAB1
 70
6
  9
$SURFTAB2
 70
6
  9
$SURFTYPE
 70
6
  9
$SURFU
 70
6
  9
$SURFV
 70
6
  9
$UCSBASE
  2

  9
$UCSNAME
  2

  9
$UCSORG
 10
0.0
 20
0.0
 30
0.0
  9
$UCSXDIR
 10
1.0
 20
0.0
 30
0.0
  9
$UCSYDIR
 10
0.0
 20
1.0
 30
0.0
  9
$UCSORTHOREF
  2

  9
$UCSORTHOVIEW
 70
0
  9
$UCSORGTOP
 10
0.0
 20
0.0
 30
0.0
  9
$UCSORGBOTTOM
 10
0.0
 20
0.0
 30
0.0
  9
$UCSORGLEFT
 10
0.0
 20
0.0
 30
0.0
  9
$UCSORGRIGHT
 10
0.0
 20
0.0
 30
0.0
  9
$UCSORGFRONT
 10
0.0
 20
0.0
 30
0.0
  9
$UCSORGBACK
 10
0.0
 20
0.0
 30
0.0
  9
$PUCSBASE
  2

  9
$PUCSNAME
  2

  9
$PUCSORG
 10
0.0
 20
0.0
 30
0.0
  9
$PUCSXDIR
 10
1.0
 20
0.0
 30
0.0
  9
$PUCSYDIR
 10
0.0
 20
1.0
 30
0.0
  9
$PUCSORTHOREF
  2

  9
$PUCSORTHOVIEW
 70
0
  9
$PUCSORGTOP
 10
0.0
 20
0.0
 30
0.0
  9
$PUCSORGBOTTOM
 10
0.0
 20
0.0
 30
0.0
  9
$PUCSORGLEFT
 10
0.0
 20
0.0
 30
0.0
  9
$PUCSORGRIGHT
 10
0.0
 20
0.0
 30
0.0
  9
$PUCSORGFRONT
 10
0.0
 20
0.0
 30
0.0
  9
$PUCSORGBACK
 10
0.0
 20
0.0
 30
0.0
  9
$USERI1
 70
0
  9
$USERI2
 70
0
  9
$USERI3
 70
0
  9
$USERI4
 70
0
  9
$USERI5
 70
0
  9
$USERR1
 40
0.0
  9
$USERR2
 40
0.0
  9
$USERR3
 40
0.0
  9
$USERR4
 40
0.0
  9
$USERR5
 40
0.0
  9
$WORLDVIEW
 70
1
  9
$SHADEDGE
 70
3
  9
$SHADEDIF
 70
70
  9
$TILEMODE
 70
1
  9
$MAXACTVP
 70
64
  9
$PINSBASE
 10
0.0
 20
0.0
 30
0.0
  9
$PLIMCHECK
 70
0
  9
$PEXTMIN
 10
1e+20
 20
1e+20
 30
1e+20
  9
$PEXTMAX
 10
-1e+20
 20
-1e+20
 30
-1e+20
  9
$PLIMMIN
 10
0.0
 20
0.0
  9
$PLIMMAX
 10
420.0
 20
297.0
  9
$UNITMODE
 70
0
  9
$VISRETAIN
 70
1
  9
$PLINEGEN
 70
0
  9
$PSLTSCALE
 70
1
  9
$TREEDEPTH
 70
3020
  9
$CMLSTYLE
  2
Standard
  9
$CMLJUST
 70
0
  9
$CMLSCALE
 40
20.0
  9
$PROXYGRAPHICS
 70
1
  9
$MEASUREMENT
 70
1
  9
$CELWEIGHT
370
-1
  9
$ENDCAPS
280
0
  9
$JOINSTYLE
280
0
  9
$LWDISPLAY
290
0
  9
$INSUNITS
 70
4
  9
$HYPERLINKBASE
  1

  9
$STYLESHEET
  1

  9
$XEDIT
290
1
  9
$CEPSNTYPE
380
0
  9
$PSTYLEMODE
290
1
  9
$FINGERPRINTGUID
  2
{C6A680C6-3122-422A-B2C1-75EF089A399F}
  9
$VERSIONGUID
  2
{5CB8DE12-C9F4-4DD6-8196-851154F52817}
  9
$EXTNAMES
290
1
  9
$PSVPSCALE
 40
0.0
  9
$OLESTARTUP
290
0
  9
$SORTENTS
280
127
  9
$INDEXCTL
280
0
  9
$HIDETEXT
280
1
  9
$XCLIPFRAME
280
1
  9
$HALOGAP
280
0
  9
$OBSCOLOR
 70
257
  9
$OBSLTYPE
280
0
  9
$INTERSECTIONDISPLAY
280
0
  9
$INTERSECTIONCOLOR
 70
257
  9
$DIMASSOC
280
2
  9
$PROJECTNAME
  1

  9
$CAMERADISPLAY
290
0
  9
$LENSLENGTH
 40
50.0
  9
$CAMERAHEIGHT
 40
0.0
  9
$STEPSPERSEC
 40
24.0
  9
$STEPSIZE
 40
100.0
  9
$3DDWFPREC
 40
2.0
  9
$PSOLWIDTH
 40
0.005
  9
$PSOLHEIGHT
 40
0.08
  9
$LOFTANG1
 40
1.570796326795
  9
$LOFTANG2
 40
1.570796326795
  9
$LOFTMAG1
 40
0.0
  9
$LOFTMAG2
 40
0.0
  9
$LOFTPARAM
 70
7
  9
$LOFTNORMALS
280
1
  9
$LATITUDE
 40
37.795
  9
$LONGITUDE
 40
-122.394
  9
$NORTHDIRECTION
 40
0.0
  9
$TIMEZONE
 70
-8000
  9
$LIGHTGLYPHDISPLAY
280
1
  9
$TILEMODELIGHTSYNCH
280
1
  9
$CMATERIAL
347
20
  9
$SOLIDHIST
280
0
  9
$SHOWHIST
280
1
  9
$DWFFRAME
280
2
  9
$DGNFRAME
280
2
  9
$REALWORLDSCALE
290
1
  9
$INTERFERECOLOR
 62
256
  9
$CSHADOW
280
0
  9
$SHADOWPLANELOCATION
 40
0.0
  0
ENDSEC
  0
SECTION
  2
CLASSES
  0
CLASS
  1
ACDBDICTIONARYWDFLT
  2
AcDbDictionaryWithDefault
  3
ObjectDBX Classes
 90
0
 91
0
280
0
281
0
  0
CLASS
  1
SUN
  2
AcDbSun
  3
SCENEOE
 90
1153
 91
0
280
0
281
0
  0
CLASS
  1
VISUALSTYLE
  2
AcDbVisualStyle
  3
ObjectDBX Classes
 90
4095
 91
0
280
0
281
0
  0
CLASS
  1
MATERIAL
  2
AcDbMaterial
  3
ObjectDBX Classes
 90
1153
 91
0
280
0
281
0
  0
CLASS
  1
SCALE
  2
AcDbScale
  3
ObjectDBX Classes
 90
1153
 91
0
280
0
281
0
  0
CLASS
  1
TABLESTYLE
  2
AcDbTableStyle
  3
ObjectDBX Classes
 90
4095
 91
0
280
0
281
0
  0
CLASS
  1
MLEADERSTYLE
  2
AcDbMLeaderStyle
  3
ACDB_MLEADERSTYLE_CLASS
 90
4095
 91
0
280
0
281
0
  0
CLASS
  1
DICTIONARYVAR
  2
AcDbDictionaryVar
  3
ObjectDBX Classes
 90
0
 91
0
280
0
281
0
  0
CLASS
  1
CELLSTYLEMAP
  2
AcDbCellStyleMap
  3
ObjectDBX Classes
 90
1152
 91
0
280
0
281
0
  0
CLASS
  1
MENTALRAYRENDERSETTINGS
  2
AcDbMentalRayRenderSettings
  3
SCENEOE
 90
1024
 91
0
280
0
281
0
  0
CLASS
  1
ACDBDETAILVIEWSTYLE
  2
AcDbDetailViewStyle
  3
ObjectDBX Classes
 90
1025
 91
0
280
0
281
0
  0
CLASS
  1
ACDBSECTIONVIEWSTYLE
  2
AcDbSectionViewStyle
  3
ObjectDBX Classes
 90
1025
 91
0
280
0
281
0
  0
CLASS
  1
RASTERVARIABLES
  2
AcDbRasterVariables
  3
ISM
 90
0
 91
0
280
0
281
0
  0
CLASS
  1
LAYOUT
  2
AcDbLayout
  3
ObjectDBX Classes
 90
0
 91
0
280
0
281
0
  0
CLASS
  1
ACDBPLACEHOLDER
  2
AcDbPlaceHolder
  3
ObjectDBX Classes
 90
0
 91
0
280
0
281
0
  0
ENDSEC
  0
SECTION
  2
TABLES
  0
TABLE
  2
VPORT
  5
8
330
0
100
AcDbSymbolTable
 70
1
  0
VPORT
  5
23
330
8
100
AcDbSymbolTableRecord
100
AcDbViewportTableRecord
  2
*Active
 70
0
 10
0.0
 20
0.0
 11
1.0
 21
1.0
 12
0.0
 22
0.0
 13
0.0
 23
0.0
 14
0.5
 24
0.5
 15
0.5
 25
0.5
 16
0.0
 26
0.0
 36
1.0
 17
0.0
 27
0.0
 37
0.0
 40
1000.0
 41
1.34
 42
50.0
 43
0.0
 44
0.0
 50
0.0
 51
0.0
 71
0
 72
1000
 73
1
 74
3
 75
0
 76
0
 77
0
 78
0
281
0
 65
0
146
0.0
  0
ENDTAB
  0
TABLE
  2
LTYPE
  5
2
330
0
100
AcDbSymbolTable
 70
21
  0
LTYPE
  5
24
330
2
100
AcDbSymbolTableRecord
100
AcDbLinetypeTableRecord
  2
ByBlock
 70
0
  3

 72
65
 73
0
 40
0.0
  0
LTYPE
  5
25
330
2
100
AcDbSymbolTableRecord
100
AcDbLinetypeTableRecord
  2
ByLayer
 70
0
  3

 72
65
 73
0
 40
0.0
  0
LTYPE
  5
26
330
2
100
AcDbSymbolTableRecord
100
AcDbLinetypeTableRecord
  2
Continuous
 70
0
  3

 72
65
 73
0
 40
0.0
  0
LTYPE
  5
2F
330
2
100
AcDbSymbolTableRecord
100
AcDbLinetypeTableRecord
  2
CENTER
 70
0
  3
Center ____ _ ____ _ ____ _ ____ _ ____ _ ____
 72
65
 73
4
 40
5.08
 49
3.175
 74
0
 49
-0.635
 74
0
 49
0.635
 74
0
 49
-0.635
 74
0
  0
LTYPE
  5
30
330
2
100
AcDbSymbolTableRecord
100
AcDbLinetypeTableRecord
  2
CENTERX2
 70
0
  3
Center (2x) ________  __  ________  __  ________
 72
65
 73
4
 40
8.89
 49
6.35
 74
0
 49
-0.635
 74
0
 49
1.27
 74
0
 49
-0.635
 74
0
  0
LTYPE
  5
31
330
2
100
AcDbSymbolTableRecord
100
AcDbLinetypeTableRecord
  2
CENTER2
 70
0
  3
Center (.5x) ____ _ ____ _ ____ _ ____ _ ____
 72
65
 73
4
 40
2.54
 49
1.587
 74
0
 49
-0.318
 74
0
 49
0.318
 74
0
 49
-0.318
 74
0
  0
LTYPE
  5
32
330
2
100
AcDbSymbolTableRecord
100
AcDbLinetypeTableRecord
  2
DASHED
 70
0
  3
Dashed __ __ __ __ __ __ __ __ __ __ __ __ __ _
 72
65
 73
2
 40
1.524
 49
1.27
 74
0
 49
-0.254
 74
0
  0
LTYPE
  5
33
330
2
100
AcDbSymbolTableRecord
100
AcDbLinetypeTableRecord
  2
DASHEDX2
 70
0
  3
Dashed (2x) ____  ____  ____  ____  ____  ____
 72
65
 73
2
 40
3.048
 49
2.54
 74
0
 49
-0.508
 74
0
  0
LTYPE
  5
34
330
2
100
AcDbSymbolTableRecord
100
AcDbLinetypeTableRecord
  2
DASHED2
 70
0
  3
Dashed (.5x) _ _ _ _ _ _ _ _ _ _ _ _ _ _
 72
65
 73
2
 40
0.762
 49
0.635
 74
0
 49
-0.127
 74
0
  0
LTYPE
  5
35
330
2
100
AcDbSymbolTableRecord
100
AcDbLinetypeTableRecord
  2
PHANTOM
 70
0
  3
Phantom ______  __  __  ______  __  __  ______
 72
65
 73
6
 40
6.35
 49
3.175
 74
0
 49
-0.635
 74
0
 49
0.635
 74
0
 49
-0.635
 74
0
 49
0.635
 74
0
 49
-0.635
 74
0
  0
LTYPE
  5
36
330
2
100
AcDbSymbolTableRecord
100
AcDbLinetypeTableRecord
  2
PHANTOMX2
 70
0
  3
Phantom (2x)____________    ____    ____    ____________
 72
65
 73
6
 40
10.795
 49
6.35
 74
0
 49
-0.635
 74
0
 49
1.27
 74
0
 49
-0.635
 74
0
 49
1.27
 74
0
 49
-0.635
 74
0
  0
LTYPE
  5
37
330
2
100
AcDbSymbolTableRecord
100
AcDbLinetypeTableRecord
  2
PHANTOM2
 70
0
  3
Phantom (.5x) ___ _ _ ___ _ _ ___ _ _ ___ _ _ ___
 72
65
 73
6
 40
3.175
 49
1.587
 74
0
 49
-0.318
 74
0
 49
0.318
 74
0
 49
-0.318
 74
0
 49
0.318
 74
0
 49
-0.318
 74
0
  0
LTYPE
  5
38
330
2
100
AcDbSymbolTableRecord
100
AcDbLinetypeTableRecord
  2
DASHDOT
 70
0
  3
Dash dot __ . __ . __ . __ . __ . __ . __ . __
 72
65
 73
4
 40
3.556
 49
2.54
 74
0
 49
-0.508
 74
0
 49
0.0
 74
0
 49
-0.508
 74
0
  0
LTYPE
  5
39
330
2
100
AcDbSymbolTableRecord
100
AcDbLinetypeTableRecord
  2
DASHDOTX2
 70
0
  3
Dash dot (2x) ____  .  ____  .  ____  .  ____
 72
65
 73
4
 40
6.096
 49
5.08
 74
0
 49
-0.508
 74
0
 49
0.0
 74
0
 49
-0.508
 74
0
  0
LTYPE
  5
3A
330
2
100
AcDbSymbolTableRecord
100
AcDbLinetypeTableRecord
  2
DASHDOT2
 70
0
  3
Dash dot (.5x) _ . _ . _ . _ . _ . _ . _ . _
 72
65
 73
4
 40
1.778
 49
1.27
 74
0
 49
-0.254
 74
0
 49
0.0
 74
0
 49
-0.254
 74
0
  0
LTYPE
  5
3B
330
2
100
AcDbSymbolTableRecord
100
AcDbLinetypeTableRecord
  2
DOT
 70
0
  3
Dot .  .  .  .  .  .  .  .  .  .  .  .  .  .  .  .
 72
65
 73
2
 40
0.508
 49
0.0
 74
0
 49
-0.508
 74
0
  0
LTYPE
  5
3C
330
2
100
AcDbSymbolTableRecord
100
AcDbLinetypeTableRecord
  2
DOTX2
 70
0
  3
Dot (2x) .    .    .    .    .    .    .    . 
 72
65
 73
2
 40
1.016
 49
0.0
 74
0
 49
-1.016
 74
0
  0
LTYPE
  5
3D
330
2
100
AcDbSymbolTableRecord
100
AcDbLinetypeTableRecord
  2
DOT2
 70
0
  3
Dot (.5) . . . . . . . . . . . . . . . . . . . 
 72
65
 73
2
 40
0.254
 49
0.0
 74
0
 49
-0.254
 74
0
  0
LTYPE
  5
3E
330
2
100
AcDbSymbolTableRecord
100
AcDbLinetypeTableRecord
  2
DIVIDE
 70
0
  3
Divide __ . . __ . . __ . . __ . . __ . . __
 72
65
 73
6
 40
4.064
 49
2.54
 74
0
 49
-0.508
 74
0
 49
0.0
 74
0
 49
-0.508
 74
0
 49
0.0
 74
0
 49
-0.508
 74
0
  0
LTYPE
  5
3F
330
2
100
AcDbSymbolTableRecord
100
AcDbLinetypeTableRecord
  2
DIVIDEX2
 70
0
  3
Divide (2x) ____  . .  ____  . .  ____  . .  ____
 72
65
 73
6
 40
6.604
 49
5.08
 74
0
 49
-0.508
 74
0
 49
0.0
 74
0
 49
-0.508
 74
0
 49
0.0
 74
0
 49
-0.508
 74
0
  0
LTYPE
  5
40
330
2
100
AcDbSymbolTableRecord
100
AcDbLinetypeTableRecord
  2
DIVIDE2
 70
0
  3
Divide(.5x) _ . _ . _ . _ . _ . _ . _ . _
 72
65
 73
6
 40
2.032
 49
1.27
 74
0
 49
-0.254
 74
0
 49
0.0
 74
0
 49
-0.254
 74
0
 49
0.0
 74
0
 49
-0.254
 74
0
  0
ENDTAB
  0
TABLE
  2
LAYER
  5
1
330
0
100
AcDbSymbolTable
 70
9
  0
LAYER
  5
27
330
1
100
AcDbSymbolTableRecord
100
AcDbLayerTableRecord
  2
0
 70
0
 62
7
  6
Continuous
370
-3
390
13
347
21
  0
LAYER
  5
28
330
1
100
AcDbSymbolTableRecord
100
AcDbLayerTableRecord
  2
Defpoints
 70
0
 62
7
  6
Continuous
290
0
370
-3
390
13
347
21
  0
LAYER
  5
8A
330
1
100
AcDbSymbolTableRecord
100
AcDbLayerTableRecord
  2
CUT
 70
0
 62
7
  6
CONTINUOUS
370
-3
390
13
347
21
  0
LAYER
  5
8B
330
1
100
AcDbSymbolTableRecord
100
AcDbLayerTableRecord
  2
BEND
 70
0
 62
1
  6
DASHED
370
-3
390
13
347
21
  0
LAYER
  5
8C
330
1
100
AcDbSymbolTableRecord
100
AcDbLayerTableRecord
  2
PEM
 70
0
 62
3
  6
CONTINUOUS
370
-3
390
13
347
21
  0
LAYER
  5
8D
330
1
100
AcDbSymbolTableRecord
100
AcDbLayerTableRecord
  2
CSK
 70
0
 62
4
  6
CONTINUOUS
370
-3
390
13
347
21
  0
LAYER
  5
8E
330
1
100
AcDbSymbolTableRecord
100
AcDbLayerTableRecord
  2
TAP
 70
0
 62
5
  6
CONTINUOUS
370
-3
390
13
347
21
  0
LAYER
  5
8F
330
1
100
AcDbSymbolTableRecord
100
AcDbLayerTableRecord
  2
ETCH
 70
0
 62
6
  6
CONTINUOUS
370
-3
390
13
347
21
  0
LAYER
  5
90
330
1
100
AcDbSymbolTableRecord
100
AcDbLayerTableRecord
  2
NOTE
 70
0
 62
8
  6
CONTINUOUS
370
-3
390
13
347
21
  0
ENDTAB
  0
TABLE
  2
STYLE
  5
5
330
0
100
AcDbSymbolTable
 70
26
  0
STYLE
  5
29
330
5
100
AcDbSymbolTableRecord
100
AcDbTextStyleTableRecord
  2
Standard
 70
0
 40
0.0
 41
1.0
 50
0.0
 71
0
 42
2.5
  3
txt
  4

  0
STYLE
  5
41
330
5
100
AcDbSymbolTableRecord
100
AcDbTextStyleTableRecord
  2
OpenSans-Light
 70
0
 40
0.0
 41
1.0
 50
0.0
 71
0
 42
2.5
  3
OpenSans-Light.ttf
  4

  0
STYLE
  5
42
330
5
100
AcDbSymbolTableRecord
100
AcDbTextStyleTableRecord
  2
OpenSans-Light-Italic
 70
0
 40
0.0
 41
1.0
 50
0.0
 71
0
 42
2.5
  3
OpenSans-LightItalic.ttf
  4

  0
STYLE
  5
43
330
5
100
AcDbSymbolTableRecord
100
AcDbTextStyleTableRecord
  2
OpenSans
 70
0
 40
0.0
 41
1.0
 50
0.0
 71
0
 42
2.5
  3
OpenSans-Regular.ttf
  4

  0
STYLE
  5
44
330
5
100
AcDbSymbolTableRecord
100
AcDbTextStyleTableRecord
  2
OpenSans-Italic
 70
0
 40
0.0
 41
1.0
 50
0.0
 71
0
 42
2.5
  3
OpenSans-Italic.ttf
  4

  0
STYLE
  5
45
330
5
100
AcDbSymbolTableRecord
100
AcDbTextStyleTableRecord
  2
OpenSans-SemiBold
 70
0
 40
0.0
 41
1.0
 50
0.0
 71
0
 42
2.5
  3
OpenSans-SemiBold.ttf
  4

  0
STYLE
  5
46
330
5
100
AcDbSymbolTableRecord
100
AcDbTextStyleTableRecord
  2
OpenSans-SemiBoldItalic
 70
0
 40
0.0
 41
1.0
 50
0.0
 71
0
 42
2.5
  3
OpenSans-SemiBoldItalic.ttf
  4

  0
STYLE
  5
47
330
5
100
AcDbSymbolTableRecord
100
AcDbTextStyleTableRecord
  2
OpenSans-Bold
 70
0
 40
0.0
 41
1.0
 50
0.0
 71
0
 42
2.5
  3
OpenSans-Bold.ttf
  4

  0
STYLE
  5
48
330
5
100
AcDbSymbolTableRecord
100
AcDbTextStyleTableRecord
  2
OpenSans-BoldItalic
 70
0
 40
0.0
 41
1.0
 50
0.0
 71
0
 42
2.5
  3
OpenSans-BoldItalic.ttf
  4

  0
STYLE
  5
49
330
5
100
AcDbSymbolTableRecord
100
AcDbTextStyleTableRecord
  2
OpenSans-ExtraBold
 70
0
 40
0.0
 41
1.0
 50
0.0
 71
0
 42
2.5
  3
OpenSans-ExtraBold.ttf
  4

  0
STYLE
  5
4A
330
5
100
AcDbSymbolTableRecord
100
AcDbTextStyleTableRecord
  2
OpenSans-ExtraBoldItalic
 70
0
 40
0.0
 41
1.0
 50
0.0
 71
0
 42
2.5
  3
OpenSans-ExtraBoldItalic.ttf
  4

  0
STYLE
  5
4B
330
5
100
AcDbSymbolTableRecord
100
AcDbTextStyleTableRecord
  2
OpenSansCondensed-Bold
 70
0
 40
0.0
 41
1.0
 50
0.0
 71
0
 42
2.5
  3
OpenSansCondensed-Bold.ttf
  4

  0
STYLE
  5
4C
330
5
100
AcDbSymbolTableRecord
100
AcDbTextStyleTableRecord
  2
OpenSansCondensed-Light
 70
0
 40
0.0
 41
1.0
 50
0.0
 71
0
 42
2.5
  3
OpenSansCondensed-Light.ttf
  4

  0
STYLE
  5
4D
330
5
100
AcDbSymbolTableRecord
100
AcDbTextStyleTableRecord
  2
OpenSansCondensed-Italic
 70
0
 40
0.0
 41
1.0
 50
0.0
 71
0
 42
2.5
  3
OpenSansCondensed-LightItalic.ttf
  4

  0
STYLE
  5
4E
330
5
100
AcDbSymbolTableRecord
100
AcDbTextStyleTableRecord
  2
LiberationSans
 70
0
 40
0.0
 41
1.0
 50
0.0
 71
0
 42
2.5
  3
LiberationSans-Regular.ttf
  4

  0
STYLE
  5
4F
330
5
100
AcDbSymbolTableRecord
100
AcDbTextStyleTableRecord
  2
LiberationSans-Bold
 70
0
 40
0.0
 41
1.0
 50
0.0
 71
0
 42
2.5
  3
LiberationSans-Bold.ttf
  4

  0
STYLE
  5
50
330
5
100
AcDbSymbolTableRecord
100
AcDbTextStyleTableRecord
  2
LiberationSans-BoldItalic
 70
0
 40
0.0
 41
1.0
 50
0.0
 71
0
 42
2.5
  3
LiberationSans-BoldItalic.ttf
  4

  0
STYLE
  5
51
330
5
100
AcDbSymbolTableRecord
100
AcDbTextStyleTableRecord
  2
LiberationSans-Italic
 70
0
 40
0.0
 41
1.0
 50
0.0
 71
0
 42
2.5
  3
LiberationSans-Italic.ttf
  4

  0
STYLE
  5
52
330
5
100
AcDbSymbolTableRecord
100
AcDbTextStyleTableRecord
  2
LiberationSerif
 70
0
 40
0.0
 41
1.0
 50
0.0
 71
0
 42
2.5
  3
LiberationSerif-Regular.ttf
  4

  0
STYLE
  5
53
330
5
100
AcDbSymbolTableRecord
100
AcDbTextStyleTableRecord
  2
LiberationSerif-Bold
 70
0
 40
0.0
 41
1.0
 50
0.0
 71
0
 42
2.5
  3
LiberationSerif-Bold.ttf
  4

  0
STYLE
  5
54
330
5
100
AcDbSymbolTableRecord
100
AcDbTextStyleTableRecord
  2
LiberationSerif-BoldItalic
 70
0
 40
0.0
 41
1.0
 50
0.0
 71
0
 42
2.5
  3
LiberationSerif-BoldItalic.ttf
  4

  0
STYLE
  5
55
330
5
100
AcDbSymbolTableRecord
100
AcDbTextStyleTableRecord
  2
LiberationSerif-Italic
 70
0
 40
0.0
 41
1.0
 50
0.0
 71
0
 42
2.5
  3
LiberationSerif-Italic.ttf
  4

  0
STYLE
  5
56
330
5
100
AcDbSymbolTableRecord
100
AcDbTextStyleTableRecord
  2
LiberationMono
 70
0
 40
0.0
 41
1.0
 50
0.0
 71
0
 42
2.5
  3
LiberationMono-Regular.ttf
  4

  0
STYLE
  5
57
330
5
100
AcDbSymbolTableRecord
100
AcDbTextStyleTableRecord
  2
LiberationMono-Bold
 70
0
 40
0.0
 41
1.0
 50
0.0
 71
0
 42
2.5
  3
LiberationMono-Bold.ttf
  4

  0
STYLE
  5
58
330
5
100
AcDbSymbolTableRecord
100
AcDbTextStyleTableRecord
  2
LiberationMono-BoldItalic
 70
0
 40
0.0
 41
1.0
 50
0.0
 71
0
 42
2.5
  3
LiberationMono-BoldItalic.ttf
  4

  0
STYLE
  5
59
330
5
100
AcDbSymbolTableRecord
100
AcDbTextStyleTableRecord
  2
LiberationMono-Italic
 70
0
 40
0.0
 41
1.0
 50
0.0
 71
0
 42
2.5
  3
LiberationMono-Italic.ttf
  4

  0
ENDTAB
  0
TABLE
  2
VIEW
  5
7
330
0
100
AcDbSymbolTable
 70
0
  0
ENDTAB
  0
TABLE
  2
UCS
  5
6
330
0
100
AcDbSymbolTable
 70
0
  0
ENDTAB
  0
TABLE
  2
APPID
  5
3
330
0
100
AcDbSymbolTable
 70
3
  0
APPID
  5
2A
330
3
100
AcDbSymbolTableRecord
100
AcDbRegAppTableRecord
  2
ACAD
 70
0
  0
APPID
  5
EF
330
3
100
AcDbSymbolTableRecord
100
AcDbRegAppTableRecord
  2
HATCHBACKGROUNDCOLOR
 70
0
  0
APPID
  5
F0
330
3
100
AcDbSymbolTableRecord
100
AcDbRegAppTableRecord
  2
EZDXF
 70
0
  0
ENDTAB
  0
TABLE
  2
DIMSTYLE
  5
4
330
0
100
AcDbSymbolTable
 70
12
100
AcDbDimStyleTable
  0
DIMSTYLE
105
2B
330
4
100
AcDbSymbolTableRecord
100
AcDbDimStyleTableRecord
  2
Standard
 70
0
 40
1.0
 41
2.5
 42
0.625
 43
3.75
 44
1.25
 45
0.0
 46
0.0
 47
0.0
 48
0.0
 49
2.5
140
2.5
141
2.5
142
0.0
143
0.03937007874
144
1.0
145
0.0
146
1.0
147
0.625
148
0.0
 69
0
 70
0
 71
0
 72
0
 73
0
 74
0
 75
0
 76
0
 77
1
 78
8
 79
3
170
0
171
3
172
1
173
0
174
0
175
0
176
0
177
0
178
0
179
2
271
2
272
2
273
2
274
3
275
0
276
0
277
2
278
44
279
0
280
0
281
0
282
0
283
0
284
8
285
0
286
0
288
0
289
3
290
0
371
-2
372
-2
  0
DIMSTYLE
105
73
330
4
100
AcDbSymbolTableRecord
100
AcDbDimStyleTableRecord
  2
EZDXF
 70
0
 40
1.0
 41
0.175
 42
0.125
 43
3.75
 44
0.375
 45
0.0
 46
0.0
 47
0.0
 48
0.0
 49
2.5
140
0.25
141
2.5
142
0.0
143
0.03937007874
144
100.0
145
0.0
146
0.5
147
0.1
148
0.0
 69
0
 70
0
 71
0
 72
0
 73
0
 74
0
 75
0
 76
0
 77
1
 78
12
 79
3
170
0
171
3
172
1
173
0
174
0
175
0
176
0
177
0
178
0
179
2
271
2
272
2
273
2
274
3
275
0
276
0
277
2
278
46
279
2
280
0
281
0
282
0
283
0
284
8
285
0
286
0
288
1
289
3
290
0
340
4C
342
74
371
-2
372
-2
  0
DIMSTYLE
105
7C
330
4
100
AcDbSymbolTableRecord
100
AcDbDimStyleTableRecord
  2
EZ_M_100_H25_CM
 70
0
 40
1.0
 41
0.25
 42
0.125
 43
3.75
 44
0.375
 45
0.0
 46
0.0
 47
0.0
 48
0.0
 49
2.5
140
0.25
141
2.5
142
0.125
143
0.03937007874
144
100.0
145
0.0
146
0.5
147
0.1
148
0.0
 69
0
 70
0
 71
0
 72
0
 73
0
 74
0
 75
0
 76
0
 77
1
 78
12
 79
3
170
0
171
3
172
1
173
0
174
0
175
0
176
0
177
0
178
0
179
2
271
2
272
2
273
2
274
3
275
0
276
0
277
2
278
46
279
2
280
0
281
0
282
0
283
0
284
8
285
0
286
0
288
1
289
3
290
0
340
4C
371
-2
372
-2
  0
DIMSTYLE
105
7D
330
4
100
AcDbSymbolTableRecord
100
AcDbDimStyleTableRecord
  2
EZ_M_50_H25_CM
 70
0
 40
1.0
 41
0.125
 42
0.0625
 43
3.75
 44
0.1875
 45
0.0
 46
0.0
 47
0.0
 48
0.0
 49
2.5
140
0.125
141
2.5
142
0.0625
143
0.03937007874
144
100.0
145
0.0
146
0.5
147
0.05
148
0.0
 69
0
 70
0
 71
0
 72
0
 73
0
 74
0
 75
0
 76
0
 77
1
 78
12
 79
3
170
0
171
3
172
1
173
0
174
0
175
0
176
0
177
0
178
0
179
2
271
2
272
2
273
2
274
3
275
0
276
0
277
2
278
46
279
2
280
0
281
0
282
0
283
0
284
8
285
0
286
0
288
1
289
3
290
0
340
4C
371
-2
372
-2
  0
DIMSTYLE
105
7E
330
4
100
AcDbSymbolTableRecord
100
AcDbDimStyleTableRecord
  2
EZ_M_25_H25_CM
 70
0
 40
1.0
 41
0.0625
 42
0.03125
 43
3.75
 44
0.09375
 45
0.0
 46
0.0
 47
0.0
 48
0.0
 49
2.5
140
0.0625
141
2.5
142
0.03125
143
0.03937007874
144
100.0
145
0.0
146
0.5
147
0.025
148
0.0
 69
0
 70
0
 71
0
 72
0
 73
0
 74
0
 75
0
 76
0
 77
1
 78
12
 79
3
170
0
171
3
172
1
173
0
174
0
175
0
176
0
177
0
178
0
179
2
271
2
272
2
273
2
274
3
275
0
276
0
277
2
278
46
279
2
280
0
281
0
282
0
283
0
284
8
285
0
286
0
288
1
289
3
290
0
340
4C
371
-2
372
-2
  0
DIMSTYLE
105
7F
330
4
100
AcDbSymbolTableRecord
100
AcDbDimStyleTableRecord
  2
EZ_M_20_H25_CM
 70
0
 40
1.0
 41
0.05
 42
0.025
 43
3.75
 44
0.07500000000000001
 45
0.0
 46
0.0
 47
0.0
 48
0.0
 49
2.5
140
0.05
141
2.5
142
0.025
143
0.03937007874
144
100.0
145
0.0
146
0.5
147
0.020000000000000004
148
0.0
 69
0
 70
0
 71
0
 72
0
 73
0
 74
0
 75
0
 76
0
 77
1
 78
12
 79
3
170
0
171
3
172
1
173
0
174
0
175
0
176
0
177
0
178
0
179
2
271
2
272
2
273
2
274
3
275
0
276
0
277
2
278
46
279
2
280
0
281
0
282
0
283
0
284
8
285
0
286
0
288
1
289
3
290
0
340
4C
371
-2
372
-2
  0
DIMSTYLE
105
80
330
4
100
AcDbSymbolTableRecord
100
AcDbDimStyleTableRecord
  2
EZ_M_10_H25_CM
 70
0
 40
1.0
 41
0.025
 42
0.0125
 43
3.75
 44
0.037500000000000006
 45
0.0
 46
0.0
 47
0.0
 48
0.0
 49
2.5
140
0.025
141
2.5
142
0.0125
143
0.03937007874
144
100.0
145
0.0
146
0.5
147
0.010000000000000002
148
0.0
 69
0
 70
0
 71
0
 72
0
 73
0
 74
0
 75
0
 76
0
 77
1
 78
12
 79
3
170
0
171
3
172
1
173
0
174
0
175
0
176
0
177
0
178
0
179
2
271
2
272
2
273
2
274
3
275
0
276
0
277
2
278
46
279
2
280
0
281
0
282
0
283
0
284
8
285
0
286
0
288
1
289
3
290
0
340
4C
371
-2
372
-2
  0
DIMSTYLE
105
81
330
4
100
AcDbSymbolTableRecord
100
AcDbDimStyleTableRecord
  2
EZ_M_5_H25_CM
 70
0
 40
1.0
 41
0.0125
 42
0.00625
 43
3.75
 44
0.018750000000000003
 45
0.0
 46
0.0
 47
0.0
 48
0.0
 49
2.5
140
0.0125
141
2.5
142
0.00625
143
0.03937007874
144
100.0
145
0.0
146
0.5
147
0.005000000000000001
148
0.0
 69
0
 70
0
 71
0
 72
0
 73
0
 74
0
 75
0
 76
0
 77
1
 78
12
 79
3
170
0
171
3
172
1
173
0
174
0
175
0
176
0
177
0
178
0
179
2
271
2
272
2
273
2
274
3
275
0
276
0
277
2
278
46
279
2
280
0
281
0
282
0
283
0
284
8
285
0
286
0
288
1
289
3
290
0
340
4C
371
-2
372
-2
  0
DIMSTYLE
105
82
330
4
100
AcDbSymbolTableRecord
100
AcDbDimStyleTableRecord
  2
EZ_M_1_H25_CM
 70
0
 40
1.0
 41
0.0025
 42
0.00125
 43
3.75
 44
0.00375
 45
0.0
 46
0.0
 47
0.0
 48
0.0
 49
2.5
140
0.0025
141
2.5
142
0.00125
143
0.03937007874
144
100.0
145
0.0
146
0.5
147
0.001
148
0.0
 69
0
 70
0
 71
0
 72
0
 73
0
 74
0
 75
0
 76
0
 77
1
 78
12
 79
3
170
0
171
3
172
1
173
0
174
0
175
0
176
0
177
0
178
0
179
2
271
2
272
2
273
2
274
3
275
0
276
0
277
2
278
46
279
2
280
0
281
0
282
0
283
0
284
8
285
0
286
0
288
1
289
3
290
0
340
4C
371
-2
372
-2
  0
DIMSTYLE
105
83
330
4
100
AcDbSymbolTableRecord
100
AcDbDimStyleTableRecord
  2
EZ_RADIUS
 70
0
 40
1.0
 41
0.25
 42
0.125
 43
3.75
 44
0.375
 45
0.0
 46
0.0
 47
0.0
 48
0.0
 49
2.5
140
0.25
141
0.0
142
0.0
143
0.03937007874
144
100.0
145
0.0
146
0.5
147
0.1
148
0.0
 69
0
 70
0
 71
0
 72
0
 73
0
 74
0
 75
0
 76
0
 77
1
 78
12
 79
3
170
0
171
3
172
0
173
0
174
0
175
0
176
0
177
0
178
0
179
2
271
2
272
2
273
2
274
3
275
0
276
0
277
2
278
46
279
1
280
0
281
0
282
0
283
0
284
8
285
0
286
0
288
1
289
3
290
0
340
4C
342
84
371
-2
372
-2
  0
DIMSTYLE
105
88
330
4
100
AcDbSymbolTableRecord
100
AcDbDimStyleTableRecord
  2
EZ_RADIUS_INSIDE
 70
0
 40
1.0
 41
0.25
 42
0.125
 43
3.75
 44
0.375
 45
0.0
 46
0.0
 47
0.0
 48
0.0
 49
2.5
140
0.25
141
0.0
142
0.0
143
0.03937007874
144
100.0
145
0.0
146
0.5
147
0.1
148
0.0
 69
0
 70
0
 71
0
 72
0
 73
0
 74
0
 75
0
 76
0
 77
0
 78
12
 79
3
170
0
171
3
172
0
173
0
174
1
175
0
176
0
177
0
178
0
179
2
271
2
272
2
273
2
274
3
275
0
276
0
277
2
278
46
279
0
280
0
281
0
282
0
283
0
284
8
285
0
286
0
288
1
289
0
290
0
340
4C
342
84
371
-2
372
-2
  0
DIMSTYLE
105
89
330
4
100
AcDbSymbolTableRecord
100
AcDbDimStyleTableRecord
  2
EZ_CURVED
 70
0
 40
1.0
 41
0.25
 42
0.125
 43
3.75
 44
0.375
 45
0.0
 46
0.0
 47
0.0
 48
0.0
 49
2.5
140
0.25
141
2.5
142
0.0
143
0.03937007874
144
100.0
145
0.0
146
0.5
147
0.1
148
0.0
 69
0
 70
0
 71
0
 72
0
 73
0
 74
0
 75
0
 76
0
 77
1
 78
12
 79
2
 90
2
170
0
171
3
172
1
173
0
174
0
175
0
176
0
177
0
178
0
179
2
271
2
272
2
273
2
274
3
275
0
276
0
277
2
278
46
279
2
280
0
281
0
282
0
283
0
284
8
285
0
286
0
288
1
289
3
290
0
340
4C
371
-2
372
-2
  0
ENDTAB
  0
TABLE
  2
BLOCK_RECORD
  5
9
330
0
100
AcDbSymbolTable
 70
5
  0
BLOCK_RECORD
  5
17
330
9
100
AcDbSymbolTableRecord
100
AcDbBlockTableRecord
  2
*Model_Space
340
1A
 70
0
280
1
281
0
  0
BLOCK_RECORD
  5
1B
330
9
100
AcDbSymbolTableRecord
100
AcDbBlockTableRecord
  2
*Paper_Space
340
1E
 70
0
280
1
281
0
  0
BLOCK_RECORD
  5
74
330
9
100
AcDbSymbolTableRecord
100
AcDbBlockTableRecord
  2
_ARCHTICK
340
0
 70
0
280
1
281
0
  0
BLOCK_RECORD
  5
78
330
9
100
AcDbSymbolTableRecord
100
AcDbBlockTableRecord
  2
_CLOSEDFILLED
340
0
 70
0
280
1
281
0
  0
BLOCK_RECORD
  5
84
330
9
100
AcDbSymbolTableRecord
100
AcDbBlockTableRecord
  2
_CLOSEDBLANK
340
0
 70
0
280
1
281
0
  0
ENDTAB
  0
ENDSEC
  0
SECTION
  2
BLOCKS
  0
BLOCK
  5
18
330
17
100
AcDbEntity
  8
0
100
AcDbBlockBegin
  2
*Model_Space
 70
0
 10
0.0
 20
0.0
 30
0.0
  3
*Model_Space
  1

  0
ENDBLK
  5
19
330
17
100
AcDbEntity
  8
0
100
AcDbBlockEnd
  0
BLOCK
  5
1C
330
1B
100
AcDbEntity
  8
0
100
AcDbBlockBegin
  2
*Paper_Space
 70
0
 10
0.0
 20
0.0
 30
0.0
  3
*Paper_Space
  1

  0
ENDBLK
  5
1D
330
1B
100
AcDbEntity
  8
0
100
AcDbBlockEnd
  0
BLOCK
  5
75
330
74
100
AcDbEntity
  8
0
100
AcDbBlockBegin
  2
_ARCHTICK
 70
0
 10
0.0
 20
0.0
 30
0.0
  3
_ARCHTICK
  1

  0
LWPOLYLINE
  5
77
330
74
100
AcDbEntity
  8
0
  6
BYBLOCK
 62
0
100
AcDbPolyline
 90
2
 70
0
 43
0.15
 10
-0.5
 20
-0.5
 10
0.5
 20
0.5
  0
ENDBLK
  5
76
330
74
100
AcDbEntity
  8
0
100
AcDbBlockEnd
  0
BLOCK
  5
79
330
78
100
AcDbEntity
  8
0
100
AcDbBlockBegin
  2
_CLOSEDFILLED
 70
0
 10
0.0
 20
0.0
 30
0.0
  3
_CLOSEDFILLED
  1

  0
SOLID
  5
7B
330
78
100
AcDbEntity
  8
0
  6
BYBLOCK
 62
0
100
AcDbTrace
 10
-1.0
 20
0.16439898372402537
 30
0.0
 11
0.0
 21
0.0
 31
0.0
 12
-1.0
 22
-0.16439898372402537
 32
0.0
 13
-1.0
 23
-0.16439898372402537
 33
0.0
  0
ENDBLK
  5
7A
330
78
100
AcDbEntity
  8
0
100
AcDbBlockEnd
  0
BLOCK
  5
85
330
84
100
AcDbEntity
  8
0
100
AcDbBlockBegin
  2
_CLOSEDBLANK
 70
0
 10
0.0
 20
0.0
 30
0.0
  3
_CLOSEDBLANK
  1

  0
LWPOLYLINE
  5
87
330
84
100
AcDbEntity
  8
0
  6
BYBLOCK
 62
0
100
AcDbPolyline
 90
3
 70
1
 10
-1.0
 20
0.16439898372402537
 10
0.0
 20
0.0
 10
-1.0
 20
-0.16439898372402537
  0
ENDBLK
  5
86
330
84
100
AcDbEntity
  8
0
100
AcDbBlockEnd
  0
ENDSEC
  0
SECTION
  2
ENTITIES
  0
LWPOLYLINE
  5
91
330
17
100
AcDbEntity
  8
CUT
100
AcDbPolyline
 90
289
 70
1
 10
0.0
 20
19.910504026080172
 10
0.0
 20
135.88595540397125
 10
0.0005747619892958799
 20
135.8976549530364
 10
0.012274311054424763
 20
135.8982297150257
 10
3.532
 20
135.8982297150257
 10
3.5810085701647805
 20
135.9006373516896
 10
3.629545161008064
 20
135.9078370748241
 10
3.677142338627231
 20
135.9197595471596
 10
3.723341716182545
 20
135.93628994877005
 10
3.767698368412999
 20
135.95726908285152
 10
3.809785116509801
 20
135.98249490887443
 10
3.849196642081823
 20
136.01172448834433
 10
3.885553390593274
 20
136.04467632443243
 10
3.9185052266813685
 20
136.08103307294388
 10
3.9477348061512725
 20
136.12044459851592
 10
3.9729606321741775
 20
136.1625313466127
 10
3.9939397662556435
 20
136.20688799884317
 10
4.010470167866105
 20
136.25308737639847
 10
4.022392640201615
 20
136.30068455401764
 10
4.029592363336098
 20
136.34922114486093
 10
4.032
 20
136.3982297150257
 10
4.032
 20
140.78502725550484
 10
4.032518663013158
 20
140.79636350359124
 10
4.036088884070029
 20
140.80713536757108
 10
9.772509507265857
 20
155.78473490594138
 10
9.777419466132374
 20
155.79584959523208
 10
9.789555038455106
 20
155.7964594300514
 10
160.4155257184327
 20
155.7964594300514
 10
160.4276612907554
 20
155.79584959523208
 10
160.43257124962196
 20
155.78473490594126
 10
166.16899187281768
 20
140.80713536757114
 10
166.17256209387455
 20
140.7963635035913
 10
166.17308075688774
 20
140.78502725550462
 10
166.17308075688774
 20
136.3982297150257
 10
166.17548839355163
 20
136.34922114486093
 10
166.18268811668614
 20
136.30068455401764
 10
166.19461058902164
 20
136.25308737639847
 10
166.2111409906321
 20
136.20688799884317
 10
166.23212012471356
 20
136.1625313466127
 10
166.25734595073646
 20
136.12044459851592
 10
166.28657553020636
 20
136.08103307294388
 10
166.31952736629447
 20
136.04467632443243
 10
166.35588411480592
 20
136.01172448834433
 10
166.39529564037795
 20
135.98249490887443
 10
166.43738238847473
 20
135.95726908285152
 10
166.4817390407052
 20
135.93628994877005
 10
166.5279384182605
 20
135.9197595471596
 10
166.57553559587967
 20
135.9078370748241
 10
166.62407218672297
 20
135.9006373516896
 10
166.67308075688774
 20
135.8982297150257
 10
175.05043174672122
 20
135.8982297150257
 10
175.099440316886
 20
135.9006373516896
 10
175.1479769077293
 20
135.9078370748241
 10
175.19557408534845
 20
135.9197595471596
 10
175.24177346290375
 20
135.93628994877005
 10
175.28613011513423
 20
135.95726908285152
 10
175.328216863231
 20
135.98249490887443
 10
175.36762838880304
 20
136.01172448834433
 10
175.4039851373145
 20
136.04467632443243
 10
175.4369369734026
 20
136.08103307294388
 10
175.4661665528725
 20
136.12044459851592
 10
175.4913923788954
 20
136.1625313466127
 10
175.51237151297687
 20
136.20688799884317
 10
175.52890191458732
 20
136.25308737639847
 10
175.54082438692282
 20
136.30068455401764
 10
175.54802411005733
 20
136.34922114486093
 10
175.55043174672122
 20
136.3982297150257
 10
175.55043174672122
 20
140.78502725550462
 10
175.5509504097344
 20
140.7963635035913
 10
175.55452063079127
 20
140.80713536757114
 10
181.29094125398703
 20
155.78473490594126
 10
181.2958512128536
 20
155.79584959523208
 10
181.3079867851763
 20
155.7964594300514
 10
331.9339574651539
 20
155.7964594300514
 10
331.94609303747666
 20
155.79584959523208
 10
331.9510029963432
 20
155.78473490594126
 10
337.6874236195387
 20
140.8071353675717
 10
337.6909938405958
 20
140.79636350359112
 10
337.691512503609
 20
140.78502725550445
 10
337.691512503609
 20
136.3982297150257
 10
337.6939201402729
 20
136.34922114486093
 10
337.70111986340737
 20
136.30068455401764
 10
337.7130423357429
 20
136.25308737639847
 10
337.72957273735335
 20
136.20688799884317
 10
337.7505518714348
 20
136.1625313466127
 10
337.7757776974577
 20
136.12044459851592
 10
337.8050072769276
 20
136.08103307294388
 10
337.8379591130157
 20
136.04467632443243
 10
337.8743158615272
 20
136.01172448834433
 10
337.9137273870992
 20
135.98249490887443
 10
337.95581413519596
 20
135.95726908285152
 10
338.00017078742644
 20
135.93628994877005
 10
338.04637016498174
 20
135.9197595471596
 10
338.09396734260093
 20
135.9078370748241
 10
338.1425039334442
 20
135.9006373516896
 10
338.191512503609
 20
135.8982297150257
 10
346.56886349344245
 20
135.8982297150257
 10
346.61787206360725
 20
135.9006373516896
 10
346.6664086544505
 20
135.9078370748241
 10
346.7140058320697
 20
135.9197595471596
 10
346.760205209625
 20
135.93628994877005
 10
346.80456186185546
 20
135.95726908285152
 10
346.84664860995224
 20
135.98249490887443
 10
346.88606013552425
 20
136.01172448834433
 10
346.9224168840357
 20
136.04467632443243
 10
346.95536872012383
 20
136.08103307294388
 10
346.9845982995937
 20
136.12044459851592
 10
347.0098241256166
 20
136.1625313466127
 10
347.0308032596981
 20
136.20688799884317
 10
347.0473336613085
 20
136.25308737639847
 10
347.05925613364406
 20
136.30068455401764
 10
347.06645585677853
 20
136.34922114486093
 10
347.06886349344245
 20
136.3982297150257
 10
347.06886349344245
 20
140.78502725550445
 10
347.0693821564556
 20
140.79636350359112
 10
347.0729523775127
 20
140.8071353675717
 10
352.80937300070826
 20
155.78473490594126
 10
352.8142829595748
 20
155.79584959523208
 10
352.82641853189756
 20
155.7964594300514
 10
503.45238921187513
 20
155.7964594300514
 10
503.46452478419786
 20
155.79584959523208
 10
503.4694347430644
 20
155.78473490594126
 10
509.2058553662599
 20
140.8071353675717
 10
509.209425587317
 20
140.79636350359112
 10
509.2099442503302
 20
140.78502725550445
 10
509.2099442503302
 20
136.3982297150257
 10
509.2123518869941
 20
136.34922114486093
 10
509.2195516101286
 20
136.30068455401764
 10
509.2314740824641
 20
136.25308737639847
 10
509.24800448407456
 20
136.20688799884317
 10
509.268983618156
 20
136.1625313466127
 10
509.29420944417893
 20
136.12044459851592
 10
509.3234390236488
 20
136.08103307294388
 10
509.3563908597369
 20
136.04467632443243
 10
509.3927476082484
 20
136.01172448834433
 10
509.4321591338204
 20
135.98249490887443
 10
509.47424588191717
 20
135.95726908285152
 10
509.51860253414765
 20
135.93628994877005
 10
509.56480191170294
 20
135.9197595471596
 10
509.61239908932214
 20
135.9078370748241
 10
509.6609356801654
 20
135.9006373516896
 10
509.7099442503302
 20
135.8982297150257
 10
513.2296699392757
 20
135.8982297150257
 10
513.2413694883409
 20
135.8976549530364
 10
513.2419442503302
 20
135.88595540397114
 10
513.2419442503302
 20
19.91050402608028
 10
513.2413694883409
 20
19.898804477014995
 10
513.2296699392758
 20
19.89822971502571
 10
509.7099442503302
 20
19.89822971502571
 10
509.6609356801654
 20
19.89582207836181
 10
509.61239908932214
 20
19.888622355227326
 10
509.56480191170294
 20
19.876699882891813
 10
509.51860253414765
 20
19.860169481281353
 10
509.47424588191717
 20
19.83919034719989
 10
509.4321591338204
 20
19.813964521176985
 10
509.3927476082484
 20
19.78473494170708
 10
509.3563908597369
 20
19.751783105618983
 10
509.3234390236488
 20
19.715426357107532
 10
509.29420944417893
 20
19.67601483153551
 10
509.268983618156
 20
19.633928083438708
 10
509.24800448407456
 20
19.589571431208256
 10
509.2314740824641
 20
19.54337205365294
 10
509.2195516101286
 20
19.495774876033774
 10
509.2123518869941
 20
19.44723828519049
 10
509.2099442503302
 20
19.39822971502571
 10
509.2099442503302
 20
15.011432174546957
 10
509.209425587317
 20
15.000095926460236
 10
509.2058553662599
 20
14.989324062479817
 10
503.4694347430647
 20
0.011724524110956968
 10
503.4645247841978
 20
0.0006098348193141065
 10
503.4523892118753
 20
0.0
 10
352.8264185318974
 20
0.0
 10
352.8142829595748
 20
0.000609834819314276
 10
352.809373000708
 20
0.011724524110956524
 10
347.07295237751265
 20
14.989324062479872
 10
347.0693821564556
 20
15.000095926460194
 10
347.06886349344245
 20
15.011432174546957
 10
347.06886349344245
 20
19.39822971502571
 10
347.06645585677853
 20
19.44723828519049
 10
347.05925613364406
 20
19.495774876033774
 10
347.0473336613085
 20
19.54337205365294
 10
347.0308032596981
 20
19.589571431208256
 10
347.0098241256166
 20
19.633928083438708
 10
346.9845982995937
 20
19.67601483153551
 10
346.95536872012383
 20
19.715426357107532
 10
346.9224168840357
 20
19.751783105618983
 10
346.88606013552425
 20
19.78473494170708
 10
346.84664860995224
 20
19.813964521176985
 10
346.80456186185546
 20
19.83919034719989
 10
346.760205209625
 20
19.860169481281353
 10
346.7140058320697
 20
19.876699882891813
 10
346.6664086544505
 20
19.888622355227326
 10
346.61787206360725
 20
19.89582207836181
 10
346.56886349344245
 20
19.89822971502571
 10
338.191512503609
 20
19.89822971502571
 10
338.1425039334442
 20
19.89582207836181
 10
338.09396734260093
 20
19.888622355227326
 10
338.04637016498174
 20
19.876699882891813
 10
338.00017078742644
 20
19.860169481281353
 10
337.95581413519596
 20
19.83919034719989
 10
337.9137273870992
 20
19.813964521176985
 10
337.8743158615272
 20
19.78473494170708
 10
337.8379591130157
 20
19.751783105618983
 10
337.8050072769276
 20
19.715426357107532
 10
337.7757776974577
 20
19.67601483153551
 10
337.7505518714348
 20
19.633928083438708
 10
337.72957273735335
 20
19.589571431208256
 10
337.7130423357429
 20
19.54337205365294
 10
337.70111986340737
 20
19.495774876033774
 10
337.6939201402729
 20
19.44723828519049
 10
337.691512503609
 20
19.39822971502571
 10
337.691512503609
 20
15.011432174546957
 10
337.6909938405958
 20
15.000095926460236
 10
337.6874236195387
 20
14.989324062479817
 10
331.9510029963435
 20
0.011724524110956968
 10
331.9460930374766
 20
0.0006098348193141065
 10
331.9339574651541
 20
0.0
 10
181.30798678517613
 20
0.0
 10
181.29585121285362
 20
0.0006098348193137409
 10
181.290941253987
 20
0.011724524110202694
 10
175.55452063079116
 20
14.98932406248056
 10
175.55095040973438
 20
15.000095926460173
 10
175.55043174672122
 20
15.011432174546803
 10
175.55043174672122
 20
19.39822971502571
 10
175.54802411005733
 20
19.44723828519049
 10
175.54082438692282
 20
19.495774876033774
 10
175.52890191458732
 20
19.54337205365294
 10
175.51237151297687
 20
19.589571431208256
 10
175.4913923788954
 20
19.633928083438708
 10
175.4661665528725
 20
19.67601483153551
 10
175.4369369734026
 20
19.715426357107532
 10
175.4039851373145
 20
19.751783105618983
 10
175.36762838880304
 20
19.78473494170708
 10
175.328216863231
 20
19.813964521176985
 10
175.28613011513423
 20
19.83919034719989
 10
175.24177346290375
 20
19.860169481281353
 10
175.19557408534845
 20
19.876699882891813
 10
175.1479769077293
 20
19.888622355227326
 10
175.099440316886
 20
19.89582207836181
 10
175.05043174672122
 20
19.89822971502571
 10
166.67308075688774
 20
19.89822971502571
 10
166.62407218672297
 20
19.89582207836181
 10
166.57553559587967
 20
19.888622355227326
 10
166.5279384182605
 20
19.876699882891813
 10
166.4817390407052
 20
19.860169481281353
 10
166.43738238847473
 20
19.83919034719989
 10
166.39529564037795
 20
19.813964521176985
 10
166.35588411480592
 20
19.78473494170708
 10
166.31952736629447
 20
19.751783105618983
 10
166.28657553020636
 20
19.715426357107532
 10
166.25734595073646
 20
19.67601483153551
 10
166.23212012471356
 20
19.633928083438708
 10
166.2111409906321
 20
19.589571431208256
 10
166.19461058902164
 20
19.54337205365294
 10
166.18268811668614
 20
19.495774876033774
 10
166.17548839355163
 20
19.44723828519049
 10
166.17308075688774
 20
19.39822971502571
 10
166.17308075688774
 20
15.011432174546803
 10
166.17256209387457
 20
15.000095926460173
 10
166.1689918728178
 20
14.98932406248056
 10
160.432571249622
 20
0.011724524110202368
 10
160.42766129075537
 20
0.0006098348193137352
 10
160.41552571843286
 20
0.0
 10
9.78955503845491
 20
0.0
 10
9.77741946613238
 20
0.0006098348193147825
 10
9.772509507265827
 20
0.01172452411011437
 10
4.036088884070057
 20
14.989324062480271
 10
4.032518663013159
 20
15.000095926460201
 10
4.032
 20
15.011432174546584
 10
4.032
 20
19.39822971502571
 10
4.029592363336098
 20
19.44723828519049
 10
4.022392640201615
 20
19.495774876033774
 10
4.010470167866105
 20
19.54337205365294
 10
3.9939397662556435
 20
19.589571431208256
 10
3.9729606321741775
 20
19.633928083438708
 10
3.9477348061512725
 20
19.67601483153551
 10
3.9185052266813685
 20
19.715426357107532
 10
3.885553390593274
 20
19.751783105618983
 10
3.849196642081823
 20
19.78473494170708
 10
3.809785116509801
 20
19.813964521176985
 10
3.767698368412999
 20
19.83919034719989
 10
3.723341716182545
 20
19.860169481281353
 10
3.677142338627231
 20
19.876699882891813
 10
3.629545161008064
 20
19.888622355227326
 10
3.5810085701647805
 20
19.89582207836181
 10
3.532
 20
19.89822971502571
 10
0.012274311054442816
 20
19.89822971502571
 10
0.0005747619892950634
 20
19.898804477015005
 10
0.0
 20
19.910504026080172
  0
LWPOLYLINE
  5
92
330
17
100
AcDbEntity
  8
CUT
100
AcDbPolyline
 90
69
 70
1
 10
326.49179313236175
 20
34.52737568326232
 10
326.5633279663748
 20
34.81295874897732
 10
326.6065263051817
 20
35.10417829403703
 10
326.6209721251651
 20
35.39822971502571
 10
326.6209721251651
 20
59.39822971502571
 10
326.6065263051817
 20
59.69228113601439
 10
326.5633279663748
 20
59.98350068107409
 10
326.49179313236175
 20
60.26908374678909
 10
326.392610722699
 20
60.546280012120974
 10
326.2667359182102
 20
60.812419925503704
 10
326.1153809620728
 20
61.06494041408452
 10
325.9400034852533
 20
61.30140956751664
 10
325.74229246872477
 20
61.51955005858535
 10
325.52415197765606
 20
61.717261075113925
 10
325.2876828242239
 20
61.892638551933345
 10
325.0351623356431
 20
62.04399350807077
 10
324.7690224222604
 20
62.16986831255957
 10
324.4918261569285
 20
62.26905072222233
 10
324.2062430912135
 20
62.340585556235396
 10
323.9150235461538
 20
62.3837838950423
 10
323.6209721251651
 20
62.39822971502571
 10
189.6209721251651
 20
62.39822971502571
 10
189.32692070417642
 20
62.3837838950423
 10
189.03570115911674
 20
62.340585556235396
 10
188.75011809340174
 20
62.26905072222233
 10
188.47292182806984
 20
62.16986831255957
 10
188.2067819146871
 20
62.04399350807077
 10
187.9542614261063
 20
61.892638551933345
 10
187.71779227267416
 20
61.717261075113925
 10
187.49965178160545
 20
61.51955005858535
 10
187.3019407650769
 20
61.30140956751664
 10
187.12656328825747
 20
61.06494041408452
 10
186.97520833212005
 20
60.812419925503704
 10
186.84933352763125
 20
60.546280012120974
 10
186.75015111796847
 20
60.26908374678909
 10
186.67861628395542
 20
59.98350068107409
 10
186.6354179451485
 20
59.69228113601439
 10
186.6209721251651
 20
59.39822971502571
 10
186.6209721251651
 20
35.39822971502571
 10
186.6354179451485
 20
35.10417829403703
 10
186.67861628395542
 20
34.81295874897732
 10
186.75015111796847
 20
34.52737568326232
 10
186.84933352763125
 20
34.25017941793044
 10
186.97520833212005
 20
33.98403950454772
 10
187.12656328825747
 20
33.7315190159669
 10
187.3019407650769
 20
33.49504986253477
 10
187.49965178160545
 20
33.27690937146607
 10
187.71779227267416
 20
33.0791983549375
 10
187.9542614261063
 20
32.903820878118076
 10
188.2067819146871
 20
32.752465921980644
 10
188.47292182806984
 20
32.626591117491856
 10
188.75011809340174
 20
32.52740870782908
 10
189.03570115911674
 20
32.45587387381602
 10
189.32692070417642
 20
32.412675535009114
 10
189.6209721251651
 20
32.39822971502571
 10
323.6209721251651
 20
32.39822971502571
 10
323.9150235461538
 20
32.412675535009114
 10
324.2062430912135
 20
32.45587387381602
 10
324.4918261569285
 20
32.52740870782908
 10
324.7690224222604
 20
32.626591117491856
 10
325.0351623356431
 20
32.752465921980644
 10
325.2876828242239
 20
32.903820878118076
 10
325.52415197765606
 20
33.0791983549375
 10
325.74229246872477
 20
33.27690937146607
 10
325.9400034852533
 20
33.49504986253477
 10
326.1153809620728
 20
33.7315190159669
 10
326.2667359182102
 20
33.98403950454772
 10
326.392610722699
 20
34.25017941793044
 10
326.49179313236175
 20
34.52737568326232
  0
LWPOLYLINE
  5
93
330
17
100
AcDbEntity
  8
CUT
100
AcDbPolyline
 90
67
 70
1
 10
47.18865970697946
 20
64.97879906953463
 10
47.14096981763741
 20
64.78841035905796
 10
47.112170925099484
 20
64.59426399568483
 10
47.10254037844388
 20
64.3982297150257
 10
47.10254037844388
 20
32.39822971502571
 10
47.112170925099484
 20
32.20219543436659
 10
47.14096981763741
 20
32.00804907099345
 10
47.18865970697946
 20
31.817660360516786
 10
47.254781313421304
 20
31.63286285029553
 10
47.33869784974716
 20
31.455436241373715
 10
47.43960115383879
 20
31.287089248986508
 10
47.5565194717184
 20
31.12944314669842
 10
47.688326816070784
 20
30.984016152652615
 10
47.83375381011658
 20
30.852208808300237
 10
47.991399912404674
 20
30.73529049042062
 10
48.15974690479188
 20
30.634387186329
 10
48.337173513713694
 20
30.550470650003138
 10
48.52197102393495
 20
30.48434904356129
 10
48.71235973441162
 20
30.43665915421925
 10
48.90650609778476
 20
30.407860261681318
 10
49.10254037844388
 20
30.39822971502571
 10
49.298574659103
 20
30.407860261681318
 10
49.49272102247613
 20
30.43665915421925
 10
49.6831097329528
 20
30.48434904356129
 10
49.86790724317406
 20
30.550470650003138
 10
50.04533385209587
 20
30.634387186329
 10
50.21368084448308
 20
30.73529049042062
 10
50.37132694677117
 20
30.852208808300237
 10
50.51675394081697
 20
30.984016152652615
 10
50.64856128516935
 20
31.12944314669842
 10
50.765479603048966
 20
31.287089248986508
 10
50.86638290714059
 20
31.455436241373715
 10
50.95029944346645
 20
31.63286285029553
 10
51.016421049908296
 20
31.817660360516786
 10
51.06411093925034
 20
32.00804907099345
 10
51.09290983178827
 20
32.20219543436659
 10
51.10254037844388
 20
32.39822971502571
 10
51.10254037844388
 20
64.3982297150257
 10
51.09290983178827
 20
64.59426399568483
 10
51.06411093925034
 20
64.78841035905796
 10
51.016421049908296
 20
64.97879906953463
 10
50.95029944346645
 20
65.16359657975589
 10
50.86638290714059
 20
65.34102318867771
 10
50.765479603048966
 20
65.50937018106491
 10
50.64856128516935
 20
65.66701628335301
 10
50.51675394081697
 20
65.8124432773988
 10
50.37132694677117
 20
65.94425062175118
 10
50.21368084448308
 20
66.0611689396308
 10
50.04533385209587
 20
66.16207224372242
 10
49.86790724317406
 20
66.24598878004828
 10
49.6831097329528
 20
66.31211038649013
 10
49.49272102247613
 20
66.35980027583217
 10
49.298574659103
 20
66.3885991683701
 10
49.10254037844388
 20
66.3982297150257
 10
48.90650609778476
 20
66.3885991683701
 10
48.71235973441162
 20
66.35980027583217
 10
48.52197102393495
 20
66.31211038649013
 10
48.337173513713694
 20
66.24598878004828
 10
48.15974690479188
 20
66.16207224372242
 10
47.991399912404674
 20
66.0611689396308
 10
47.83375381011658
 20
65.94425062175118
 10
47.688326816070784
 20
65.8124432773988
 10
47.5565194717184
 20
65.66701628335301
 10
47.43960115383879
 20
65.50937018106491
 10
47.33869784974716
 20
65.34102318867771
 10
47.254781313421304
 20
65.16359657975589
 10
47.18865970697946
 20
64.97879906953463
  0
LWPOLYLINE
  5
94
330
17
100
AcDbEntity
  8
CUT
100
AcDbPolyline
 90
67
 70
1
 10
56.18865970697946
 20
64.97879906953463
 10
56.14096981763741
 20
64.78841035905796
 10
56.112170925099484
 20
64.59426399568483
 10
56.10254037844388
 20
64.3982297150257
 10
56.10254037844388
 20
32.39822971502571
 10
56.112170925099484
 20
32.20219543436659
 10
56.14096981763741
 20
32.00804907099345
 10
56.18865970697946
 20
31.817660360516786
 10
56.254781313421304
 20
31.63286285029553
 10
56.33869784974716
 20
31.455436241373715
 10
56.43960115383879
 20
31.287089248986508
 10
56.5565194717184
 20
31.12944314669842
 10
56.688326816070784
 20
30.984016152652615
 10
56.83375381011659
 20
30.852208808300237
 10
56.991399912404674
 20
30.73529049042062
 10
57.15974690479188
 20
30.634387186329
 10
57.337173513713694
 20
30.550470650003138
 10
57.52197102393495
 20
30.48434904356129
 10
57.71235973441162
 20
30.43665915421925
 10
57.90650609778476
 20
30.407860261681318
 10
58.10254037844388
 20
30.39822971502571
 10
58.298574659103
 20
30.407860261681318
 10
58.49272102247613
 20
30.43665915421925
 10
58.6831097329528
 20
30.48434904356129
 10
58.86790724317406
 20
30.550470650003138
 10
59.04533385209587
 20
30.634387186329
 10
59.21368084448308
 20
30.73529049042062
 10
59.37132694677116
 20
30.852208808300237
 10
59.51675394081697
 20
30.984016152652615
 10
59.64856128516935
 20
31.12944314669842
 10
59.765479603048966
 20
31.287089248986508
 10
59.86638290714059
 20
31.455436241373715
 10
59.95029944346645
 20
31.63286285029553
 10
60.016421049908296
 20
31.817660360516786
 10
60.06411093925034
 20
32.00804907099345
 10
60.09290983178827
 20
32.20219543436659
 10
60.10254037844388
 20
32.39822971502571
 10
60.10254037844388
 20
64.3982297150257
 10
60.09290983178827
 20
64.59426399568483
 10
60.06411093925034
 20
64.78841035905796
 10
60.016421049908296
 20
64.97879906953463
 10
59.95029944346645
 20
65.16359657975589
 10
59.86638290714059
 20
65.34102318867771
 10
59.765479603048966
 20
65.50937018106491
 10
59.64856128516935
 20
65.66701628335301
 10
59.51675394081697
 20
65.8124432773988
 10
59.37132694677116
 20
65.94425062175118
 10
59.21368084448308
 20
66.0611689396308
 10
59.04533385209587
 20
66.16207224372242
 10
58.86790724317406
 20
66.24598878004828
 10
58.6831097329528
 20
66.31211038649013
 10
58.49272102247613
 20
66.35980027583217
 10
58.298574659103
 20
66.3885991683701
 10
58.10254037844388
 20
66.3982297150257
 10
57.90650609778476
 20
66.3885991683701
 10
57.71235973441162
 20
66.35980027583217
 10
57.52197102393495
 20
66.31211038649013
 10
57.337173513713694
 20
66.24598878004828
 10
57.15974690479188
 20
66.16207224372242
 10
56.991399912404674
 20
66.0611689396308
 10
56.83375381011659
 20
65.94425062175118
 10
56.688326816070784
 20
65.8124432773988
 10
56.5565194717184
 20
65.66701628335301
 10
56.43960115383879
 20
65.50937018106491
 10
56.33869784974716
 20
65.34102318867771
 10
56.254781313421304
 20
65.16359657975589
 10
56.18865970697946
 20
64.97879906953463
  0
LWPOLYLINE
  5
95
330
17
100
AcDbEntity
  8
CUT
100
AcDbPolyline
 90
67
 70
1
 10
65.2547813134213
 20
65.16359657975589
 10
65.18865970697945
 20
64.97879906953463
 10
65.14096981763741
 20
64.78841035905796
 10
65.11217092509949
 20
64.59426399568483
 10
65.10254037844388
 20
64.3982297150257
 10
65.10254037844388
 20
32.39822971502571
 10
65.11217092509949
 20
32.20219543436659
 10
65.14096981763741
 20
32.00804907099345
 10
65.18865970697945
 20
31.817660360516786
 10
65.2547813134213
 20
31.63286285029553
 10
65.33869784974716
 20
31.455436241373715
 10
65.4396011538388
 20
31.287089248986508
 10
65.5565194717184
 20
31.12944314669842
 10
65.68832681607078
 20
30.984016152652615
 10
65.83375381011659
 20
30.852208808300237
 10
65.99139991240467
 20
30.73529049042062
 10
66.15974690479189
 20
30.634387186329
 10
66.3371735137137
 20
30.550470650003138
 10
66.52197102393495
 20
30.48434904356129
 10
66.71235973441162
 20
30.43665915421925
 10
66.90650609778476
 20
30.407860261681318
 10
67.10254037844388
 20
30.39822971502571
 10
67.298574659103
 20
30.407860261681318
 10
67.49272102247613
 20
30.43665915421925
 10
67.6831097329528
 20
30.48434904356129
 10
67.86790724317406
 20
30.550470650003138
 10
68.04533385209587
 20
30.634387186329
 10
68.21368084448308
 20
30.73529049042062
 10
68.37132694677116
 20
30.852208808300237
 10
68.51675394081697
 20
30.984016152652615
 10
68.64856128516935
 20
31.12944314669842
 10
68.76547960304896
 20
31.287089248986508
 10
68.86638290714059
 20
31.455436241373715
 10
68.95029944346645
 20
31.63286285029553
 10
69.0164210499083
 20
31.817660360516786
 10
69.06411093925034
 20
32.00804907099345
 10
69.09290983178826
 20
32.20219543436659
 10
69.10254037844388
 20
32.39822971502571
 10
69.10254037844388
 20
64.3982297150257
 10
69.09290983178826
 20
64.59426399568483
 10
69.06411093925034
 20
64.78841035905796
 10
69.0164210499083
 20
64.97879906953463
 10
68.95029944346645
 20
65.16359657975589
 10
68.86638290714059
 20
65.34102318867771
 10
68.76547960304896
 20
65.50937018106491
 10
68.64856128516935
 20
65.66701628335301
 10
68.51675394081697
 20
65.8124432773988
 10
68.37132694677116
 20
65.94425062175118
 10
68.21368084448308
 20
66.0611689396308
 10
68.04533385209587
 20
66.16207224372242
 10
67.86790724317406
 20
66.24598878004828
 10
67.6831097329528
 20
66.31211038649013
 10
67.49272102247613
 20
66.35980027583217
 10
67.298574659103
 20
66.3885991683701
 10
67.10254037844388
 20
66.3982297150257
 10
66.90650609778476
 20
66.3885991683701
 10
66.71235973441162
 20
66.35980027583217
 10
66.52197102393495
 20
66.31211038649013
 10
66.3371735137137
 20
66.24598878004828
 10
66.15974690479189
 20
66.16207224372242
 10
65.99139991240467
 20
66.0611689396308
 10
65.83375381011659
 20
65.94425062175118
 10
65.68832681607078
 20
65.8124432773988
 10
65.5565194717184
 20
65.66701628335301
 10
65.4396011538388
 20
65.50937018106491
 10
65.33869784974716
 20
65.34102318867771
 10
65.2547813134213
 20
65.16359657975589
  0
LWPOLYLINE
  5
96
330
17
100
AcDbEntity
  8
CUT
100
AcDbPolyline
 90
67
 70
1
 10
74.2547813134213
 20
65.16359657975589
 10
74.18865970697946
 20
64.97879906953463
 10
74.14096981763741
 20
64.78841035905796
 10
74.11217092509948
 20
64.59426399568483
 10
74.10254037844388
 20
64.3982297150257
 10
74.10254037844388
 20
32.39822971502571
 10
74.11217092509948
 20
32.20219543436659
 10
74.14096981763741
 20
32.00804907099345
 10
74.18865970697946
 20
31.817660360516786
 10
74.2547813134213
 20
31.63286285029553
 10
74.33869784974716
 20
31.455436241373715
 10
74.4396011538388
 20
31.287089248986508
 10
74.5565194717184
 20
31.12944314669842
 10
74.68832681607078
 20
30.984016152652615
 10
74.83375381011659
 20
30.852208808300237
 10
74.99139991240467
 20
30.73529049042062
 10
75.15974690479189
 20
30.634387186329
 10
75.3371735137137
 20
30.550470650003138
 10
75.52197102393495
 20
30.48434904356129
 10
75.71235973441162
 20
30.43665915421925
 10
75.90650609778476
 20
30.407860261681318
 10
76.10254037844388
 20
30.39822971502571
 10
76.298574659103
 20
30.407860261681318
 10
76.49272102247613
 20
30.43665915421925
 10
76.6831097329528
 20
30.48434904356129
 10
76.86790724317406
 20
30.550470650003138
 10
77.04533385209587
 20
30.634387186329
 10
77.21368084448308
 20
30.73529049042062
 10
77.37132694677116
 20
30.852208808300237
 10
77.51675394081697
 20
30.984016152652615
 10
77.64856128516935
 20
31.12944314669842
 10
77.76547960304897
 20
31.287089248986508
 10
77.86638290714059
 20
31.455436241373715
 10
77.95029944346645
 20
31.63286285029553
 10
78.01642104990829
 20
31.817660360516786
 10
78.06411093925034
 20
32.00804907099345
 10
78.09290983178828
 20
32.20219543436659
 10
78.10254037844388
 20
32.39822971502571
 10
78.10254037844388
 20
64.3982297150257
 10
78.09290983178828
 20
64.59426399568483
 10
78.06411093925034
 20
64.78841035905796
 10
78.01642104990829
 20
64.97879906953463
 10
77.95029944346645
 20
65.16359657975589
 10
77.86638290714059
 20
65.34102318867771
 10
77.76547960304897
 20
65.50937018106491
 10
77.64856128516935
 20
65.66701628335301
 10
77.51675394081697
 20
65.8124432773988
 10
77.37132694677116
 20
65.94425062175118
 10
77.21368084448308
 20
66.0611689396308
 10
77.04533385209587
 20
66.16207224372242
 10
76.86790724317406
 20
66.24598878004828
 10
76.6831097329528
 20
66.31211038649013
 10
76.49272102247613
 20
66.35980027583217
 10
76.298574659103
 20
66.3885991683701
 10
76.10254037844388
 20
66.3982297150257
 10
75.90650609778476
 20
66.3885991683701
 10
75.71235973441162
 20
66.35980027583217
 10
75.52197102393495
 20
66.31211038649013
 10
75.3371735137137
 20
66.24598878004828
 10
75.15974690479189
 20
66.16207224372242
 10
74.99139991240467
 20
66.0611689396308
 10
74.83375381011659
 20
65.94425062175118
 10
74.68832681607078
 20
65.8124432773988
 10
74.5565194717184
 20
65.66701628335301
 10
74.4396011538388
 20
65.50937018106491
 10
74.33869784974716
 20
65.34102318867771
 10
74.2547813134213
 20
65.16359657975589
  0
LWPOLYLINE
  5
97
330
17
100
AcDbEntity
  8
CUT
100
AcDbPolyline
 90
67
 70
1
 10
83.18865970697946
 20
64.97879906953463
 10
83.14096981763741
 20
64.78841035905796
 10
83.11217092509948
 20
64.59426399568483
 10
83.10254037844388
 20
64.3982297150257
 10
83.10254037844388
 20
32.39822971502571
 10
83.11217092509948
 20
32.20219543436659
 10
83.14096981763741
 20
32.00804907099345
 10
83.18865970697946
 20
31.817660360516786
 10
83.2547813134213
 20
31.63286285029553
 10
83.33869784974716
 20
31.455436241373715
 10
83.43960115383878
 20
31.287089248986508
 10
83.5565194717184
 20
31.12944314669842
 10
83.68832681607078
 20
30.984016152652615
 10
83.83375381011659
 20
30.852208808300237
 10
83.99139991240467
 20
30.73529049042062
 10
84.15974690479189
 20
30.634387186329
 10
84.3371735137137
 20
30.550470650003138
 10
84.52197102393495
 20
30.48434904356129
 10
84.71235973441162
 20
30.43665915421925
 10
84.90650609778476
 20
30.407860261681318
 10
85.10254037844388
 20
30.39822971502571
 10
85.298574659103
 20
30.407860261681318
 10
85.49272102247613
 20
30.43665915421925
 10
85.6831097329528
 20
30.48434904356129
 10
85.86790724317406
 20
30.550470650003138
 10
86.04533385209587
 20
30.634387186329
 10
86.21368084448308
 20
30.73529049042062
 10
86.37132694677116
 20
30.852208808300237
 10
86.51675394081697
 20
30.984016152652615
 10
86.64856128516935
 20
31.12944314669842
 10
86.76547960304897
 20
31.287089248986508
 10
86.86638290714059
 20
31.455436241373715
 10
86.95029944346645
 20
31.63286285029553
 10
87.01642104990829
 20
31.817660360516786
 10
87.06411093925034
 20
32.00804907099345
 10
87.09290983178828
 20
32.20219543436659
 10
87.10254037844388
 20
32.39822971502571
 10
87.10254037844388
 20
64.3982297150257
 10
87.09290983178828
 20
64.59426399568483
 10
87.06411093925034
 20
64.78841035905796
 10
87.01642104990829
 20
64.97879906953463
 10
86.95029944346645
 20
65.16359657975589
 10
86.86638290714059
 20
65.34102318867771
 10
86.76547960304897
 20
65.50937018106491
 10
86.64856128516935
 20
65.66701628335301
 10
86.51675394081697
 20
65.8124432773988
 10
86.37132694677116
 20
65.94425062175118
 10
86.21368084448308
 20
66.0611689396308
 10
86.04533385209587
 20
66.16207224372242
 10
85.86790724317406
 20
66.24598878004828
 10
85.6831097329528
 20
66.31211038649013
 10
85.49272102247613
 20
66.35980027583217
 10
85.298574659103
 20
66.3885991683701
 10
85.10254037844388
 20
66.3982297150257
 10
84.90650609778476
 20
66.3885991683701
 10
84.71235973441162
 20
66.35980027583217
 10
84.52197102393495
 20
66.31211038649013
 10
84.3371735137137
 20
66.24598878004828
 10
84.15974690479189
 20
66.16207224372242
 10
83.99139991240467
 20
66.0611689396308
 10
83.83375381011659
 20
65.94425062175118
 10
83.68832681607078
 20
65.8124432773988
 10
83.5565194717184
 20
65.66701628335301
 10
83.43960115383878
 20
65.50937018106491
 10
83.33869784974716
 20
65.34102318867771
 10
83.2547813134213
 20
65.16359657975589
 10
83.18865970697946
 20
64.97879906953463
  0
LWPOLYLINE
  5
98
330
17
100
AcDbEntity
  8
CUT
100
AcDbPolyline
 90
67
 70
1
 10
92.2547813134213
 20
65.16359657975589
 10
92.18865970697946
 20
64.97879906953463
 10
92.14096981763741
 20
64.78841035905796
 10
92.11217092509948
 20
64.59426399568483
 10
92.10254037844388
 20
64.3982297150257
 10
92.10254037844388
 20
32.39822971502571
 10
92.11217092509948
 20
32.20219543436659
 10
92.14096981763741
 20
32.00804907099345
 10
92.18865970697946
 20
31.817660360516786
 10
92.2547813134213
 20
31.63286285029553
 10
92.33869784974716
 20
31.455436241373715
 10
92.43960115383878
 20
31.287089248986508
 10
92.5565194717184
 20
31.12944314669842
 10
92.68832681607078
 20
30.984016152652615
 10
92.83375381011659
 20
30.852208808300237
 10
92.99139991240467
 20
30.73529049042062
 10
93.15974690479189
 20
30.634387186329
 10
93.3371735137137
 20
30.550470650003138
 10
93.52197102393495
 20
30.48434904356129
 10
93.71235973441162
 20
30.43665915421925
 10
93.90650609778476
 20
30.407860261681318
 10
94.10254037844388
 20
30.39822971502571
 10
94.298574659103
 20
30.407860261681318
 10
94.49272102247613
 20
30.43665915421925
 10
94.6831097329528
 20
30.48434904356129
 10
94.86790724317406
 20
30.550470650003138
 10
95.04533385209587
 20
30.634387186329
 10
95.21368084448308
 20
30.73529049042062
 10
95.37132694677116
 20
30.852208808300237
 10
95.51675394081697
 20
30.984016152652615
 10
95.64856128516935
 20
31.12944314669842
 10
95.76547960304896
 20
31.287089248986508
 10
95.86638290714059
 20
31.455436241373715
 10
95.95029944346645
 20
31.63286285029553
 10
96.01642104990829
 20
31.817660360516786
 10
96.06411093925034
 20
32.00804907099345
 10
96.09290983178828
 20
32.20219543436659
 10
96.10254037844388
 20
32.39822971502571
 10
96.10254037844388
 20
64.3982297150257
 10
96.09290983178828
 20
64.59426399568483
 10
96.06411093925034
 20
64.78841035905796
 10
96.01642104990829
 20
64.97879906953463
 10
95.95029944346645
 20
65.16359657975589
 10
95.86638290714059
 20
65.34102318867771
 10
95.76547960304896
 20
65.50937018106491
 10
95.64856128516935
 20
65.66701628335301
 10
95.51675394081697
 20
65.8124432773988
 10
95.37132694677116
 20
65.94425062175118
 10
95.21368084448308
 20
66.0611689396308
 10
95.04533385209587
 20
66.16207224372242
 10
94.86790724317406
 20
66.24598878004828
 10
94.6831097329528
 20
66.31211038649013
 10
94.49272102247613
 20
66.35980027583217
 10
94.298574659103
 20
66.3885991683701
 10
94.10254037844388
 20
66.3982297150257
 10
93.90650609778476
 20
66.3885991683701
 10
93.71235973441162
 20
66.35980027583217
 10
93.52197102393495
 20
66.31211038649013
 10
93.3371735137137
 20
66.24598878004828
 10
93.15974690479189
 20
66.16207224372242
 10
92.99139991240467
 20
66.0611689396308
 10
92.83375381011659
 20
65.94425062175118
 10
92.68832681607078
 20
65.8124432773988
 10
92.5565194717184
 20
65.66701628335301
 10
92.43960115383878
 20
65.50937018106491
 10
92.33869784974716
 20
65.34102318867771
 10
92.2547813134213
 20
65.16359657975589
  0
LWPOLYLINE
  5
99
330
17
100
AcDbEntity
  8
CUT
100
AcDbPolyline
 90
67
 70
1
 10
101.2547813134213
 20
65.16359657975589
 10
101.18865970697945
 20
64.97879906953463
 10
101.14096981763741
 20
64.78841035905796
 10
101.11217092509949
 20
64.59426399568483
 10
101.10254037844388
 20
64.3982297150257
 10
101.10254037844388
 20
32.39822971502571
 10
101.11217092509949
 20
32.20219543436659
 10
101.14096981763741
 20
32.00804907099345
 10
101.18865970697945
 20
31.817660360516786
 10
101.2547813134213
 20
31.63286285029553
 10
101.33869784974716
 20
31.455436241373715
 10
101.4396011538388
 20
31.287089248986508
 10
101.5565194717184
 20
31.12944314669842
 10
101.68832681607078
 20
30.984016152652615
 10
101.83375381011659
 20
30.852208808300237
 10
101.99139991240467
 20
30.73529049042062
 10
102.15974690479189
 20
30.634387186329
 10
102.3371735137137
 20
30.550470650003138
 10
102.52197102393495
 20
30.48434904356129
 10
102.71235973441162
 20
30.43665915421925
 10
102.90650609778476
 20
30.407860261681318
 10
103.10254037844388
 20
30.39822971502571
 10
103.298574659103
 20
30.407860261681318
 10
103.49272102247613
 20
30.43665915421925
 10
103.6831097329528
 20
30.48434904356129
 10
103.86790724317406
 20
30.550470650003138
 10
104.04533385209587
 20
30.634387186329
 10
104.21368084448308
 20
30.73529049042062
 10
104.37132694677116
 20
30.852208808300237
 10
104.51675394081697
 20
30.984016152652615
 10
104.64856128516935
 20
31.12944314669842
 10
104.76547960304896
 20
31.287089248986508
 10
104.86638290714059
 20
31.455436241373715
 10
104.95029944346645
 20
31.63286285029553
 10
105.0164210499083
 20
31.817660360516786
 10
105.06411093925034
 20
32.00804907099345
 10
105.09290983178826
 20
32.20219543436659
 10
105.10254037844388
 20
32.39822971502571
 10
105.10254037844388
 20
64.3982297150257
 10
105.09290983178826
 20
64.59426399568483
 10
105.06411093925034
 20
64.78841035905796
 10
105.0164210499083
 20
64.97879906953463
 10
104.95029944346645
 20
65.16359657975589
 10
104.86638290714059
 20
65.34102318867771
 10
104.76547960304896
 20
65.50937018106491
 10
104.64856128516935
 20
65.66701628335301
 10
104.51675394081697
 20
65.8124432773988
 10
104.37132694677116
 20
65.94425062175118
 10
104.21368084448308
 20
66.0611689396308
 10
104.04533385209587
 20
66.16207224372242
 10
103.86790724317406
 20
66.24598878004828
 10
103.6831097329528
 20
66.31211038649013
 10
103.49272102247613
 20
66.35980027583217
 10
103.298574659103
 20
66.3885991683701
 10
103.10254037844388
 20
66.3982297150257
 10
102.90650609778476
 20
66.3885991683701
 10
102.71235973441162
 20
66.35980027583217
 10
102.52197102393495
 20
66.31211038649013
 10
102.3371735137137
 20
66.24598878004828
 10
102.15974690479189
 20
66.16207224372242
 10
101.99139991240467
 20
66.0611689396308
 10
101.83375381011659
 20
65.94425062175118
 10
101.68832681607078
 20
65.8124432773988
 10
101.5565194717184
 20
65.66701628335301
 10
101.4396011538388
 20
65.50937018106491
 10
101.33869784974716
 20
65.34102318867771
 10
101.2547813134213
 20
65.16359657975589
  0
LWPOLYLINE
  5
9A
330
17
100
AcDbEntity
  8
CUT
100
AcDbPolyline
 90
67
 70
1
 10
110.18865970697945
 20
64.97879906953463
 10
110.14096981763741
 20
64.78841035905796
 10
110.11217092509949
 20
64.59426399568483
 10
110.10254037844388
 20
64.3982297150257
 10
110.10254037844388
 20
32.39822971502571
 10
110.11217092509949
 20
32.20219543436659
 10
110.14096981763741
 20
32.00804907099345
 10
110.18865970697945
 20
31.817660360516786
 10
110.2547813134213
 20
31.63286285029553
 10
110.33869784974716
 20
31.455436241373715
 10
110.4396011538388
 20
31.287089248986508
 10
110.5565194717184
 20
31.12944314669842
 10
110.68832681607078
 20
30.984016152652615
 10
110.83375381011659
 20
30.852208808300237
 10
110.99139991240467
 20
30.73529049042062
 10
111.15974690479189
 20
30.634387186329
 10
111.3371735137137
 20
30.550470650003138
 10
111.52197102393495
 20
30.48434904356129
 10
111.71235973441162
 20
30.43665915421925
 10
111.90650609778476
 20
30.407860261681318
 10
112.10254037844388
 20
30.39822971502571
 10
112.298574659103
 20
30.407860261681318
 10
112.49272102247613
 20
30.43665915421925
 10
112.6831097329528
 20
30.48434904356129
 10
112.86790724317406
 20
30.550470650003138
 10
113.04533385209587
 20
30.634387186329
 10
113.21368084448308
 20
30.73529049042062
 10
113.37132694677116
 20
30.852208808300237
 10
113.51675394081697
 20
30.984016152652615
 10
113.64856128516935
 20
31.12944314669842
 10
113.76547960304896
 20
31.287089248986508
 10
113.86638290714059
 20
31.455436241373715
 10
113.95029944346645
 20
31.63286285029553
 10
114.0164210499083
 20
31.817660360516786
 10
114.06411093925034
 20
32.00804907099345
 10
114.09290983178826
 20
32.20219543436659
 10
114.10254037844388
 20
32.39822971502571
 10
114.10254037844388
 20
64.3982297150257
 10
114.09290983178826
 20
64.59426399568483
 10
114.06411093925034
 20
64.78841035905796
 10
114.0164210499083
 20
64.97879906953463
 10
113.95029944346645
 20
65.16359657975589
 10
113.86638290714059
 20
65.34102318867771
 10
113.76547960304896
 20
65.50937018106491
 10
113.64856128516935
 20
65.66701628335301
 10
113.51675394081697
 20
65.8124432773988
 10
113.37132694677116
 20
65.94425062175118
 10
113.21368084448308
 20
66.0611689396308
 10
113.04533385209587
 20
66.16207224372242
 10
112.86790724317406
 20
66.24598878004828
 10
112.6831097329528
 20
66.31211038649013
 10
112.49272102247613
 20
66.35980027583217
 10
112.298574659103
 20
66.3885991683701
 10
112.10254037844388
 20
66.3982297150257
 10
111.90650609778476
 20
66.3885991683701
 10
111.71235973441162
 20
66.35980027583217
 10
111.52197102393495
 20
66.31211038649013
 10
111.3371735137137
 20
66.24598878004828
 10
111.15974690479189
 20
66.16207224372242
 10
110.99139991240467
 20
66.0611689396308
 10
110.83375381011659
 20
65.94425062175118
 10
110.68832681607078
 20
65.8124432773988
 10
110.5565194717184
 20
65.66701628335301
 10
110.4396011538388
 20
65.50937018106491
 10
110.33869784974716
 20
65.34102318867771
 10
110.2547813134213
 20
65.16359657975589
 10
110.18865970697945
 20
64.97879906953463
  0
LWPOLYLINE
  5
9B
330
17
100
AcDbEntity
  8
CUT
100
AcDbPolyline
 90
67
 70
1
 10
119.2547813134213
 20
65.16359657975589
 10
119.18865970697945
 20
64.97879906953463
 10
119.14096981763741
 20
64.78841035905796
 10
119.11217092509949
 20
64.59426399568483
 10
119.10254037844388
 20
64.3982297150257
 10
119.10254037844388
 20
32.39822971502571
 10
119.11217092509949
 20
32.20219543436659
 10
119.14096981763741
 20
32.00804907099345
 10
119.18865970697945
 20
31.817660360516786
 10
119.2547813134213
 20
31.63286285029553
 10
119.33869784974716
 20
31.455436241373715
 10
119.4396011538388
 20
31.287089248986508
 10
119.5565194717184
 20
31.12944314669842
 10
119.68832681607078
 20
30.984016152652615
 10
119.83375381011658
 20
30.852208808300237
 10
119.99139991240467
 20
30.73529049042062
 10
120.15974690479189
 20
30.634387186329
 10
120.3371735137137
 20
30.550470650003138
 10
120.52197102393495
 20
30.48434904356129
 10
120.71235973441162
 20
30.43665915421925
 10
120.90650609778476
 20
30.407860261681318
 10
121.10254037844388
 20
30.39822971502571
 10
121.298574659103
 20
30.407860261681318
 10
121.49272102247613
 20
30.43665915421925
 10
121.6831097329528
 20
30.48434904356129
 10
121.86790724317406
 20
30.550470650003138
 10
122.04533385209587
 20
30.634387186329
 10
122.21368084448308
 20
30.73529049042062
 10
122.37132694677118
 20
30.852208808300237
 10
122.51675394081697
 20
30.984016152652615
 10
122.64856128516935
 20
31.12944314669842
 10
122.76547960304896
 20
31.287089248986508
 10
122.86638290714059
 20
31.455436241373715
 10
122.95029944346645
 20
31.63286285029553
 10
123.0164210499083
 20
31.817660360516786
 10
123.06411093925034
 20
32.00804907099345
 10
123.09290983178826
 20
32.20219543436659
 10
123.10254037844388
 20
32.39822971502571
 10
123.10254037844388
 20
64.3982297150257
 10
123.09290983178826
 20
64.59426399568483
 10
123.06411093925034
 20
64.78841035905796
 10
123.0164210499083
 20
64.97879906953463
 10
122.95029944346645
 20
65.16359657975589
 10
122.86638290714059
 20
65.34102318867771
 10
122.76547960304896
 20
65.50937018106491
 10
122.64856128516935
 20
65.66701628335301
 10
122.51675394081697
 20
65.8124432773988
 10
122.37132694677118
 20
65.94425062175118
 10
122.21368084448308
 20
66.0611689396308
 10
122.04533385209587
 20
66.16207224372242
 10
121.86790724317406
 20
66.24598878004828
 10
121.6831097329528
 20
66.31211038649013
 10
121.49272102247613
 20
66.35980027583217
 10
121.298574659103
 20
66.3885991683701
 10
121.10254037844388
 20
66.3982297150257
 10
120.90650609778476
 20
66.3885991683701
 10
120.71235973441162
 20
66.35980027583217
 10
120.52197102393495
 20
66.31211038649013
 10
120.3371735137137
 20
66.24598878004828
 10
120.15974690479189
 20
66.16207224372242
 10
119.99139991240467
 20
66.0611689396308
 10
119.83375381011658
 20
65.94425062175118
 10
119.68832681607078
 20
65.8124432773988
 10
119.5565194717184
 20
65.66701628335301
 10
119.4396011538388
 20
65.50937018106491
 10
119.33869784974716
 20
65.34102318867771
 10
119.2547813134213
 20
65.16359657975589
  0
LWPOLYLINE
  5
9C
330
17
100
AcDbEntity
  8
CUT
100
AcDbPolyline
 90
69
 70
1
 10
102.95029944346645
 20
87.63286285029552
 10
103.0164210499083
 20
87.81766036051678
 10
103.06411093925034
 20
88.00804907099345
 10
103.09290983178826
 20
88.20219543436659
 10
103.10254037844388
 20
88.3982297150257
 10
103.10254037844388
 20
120.3982297150257
 10
103.09290983178826
 20
120.59426399568483
 10
103.06411093925034
 20
120.78841035905796
 10
103.0164210499083
 20
120.97879906953463
 10
102.95029944346645
 20
121.16359657975589
 10
102.86638290714059
 20
121.3410231886777
 10
102.76547960304896
 20
121.50937018106491
 10
102.64856128516935
 20
121.667016283353
 10
102.51675394081697
 20
121.8124432773988
 10
102.37132694677116
 20
121.94425062175118
 10
102.21368084448308
 20
122.0611689396308
 10
102.04533385209587
 20
122.16207224372242
 10
101.86790724317406
 20
122.24598878004828
 10
101.6831097329528
 20
122.31211038649012
 10
101.49272102247613
 20
122.35980027583217
 10
101.298574659103
 20
122.3885991683701
 10
101.10254037844388
 20
122.3982297150257
 10
69.10254037844388
 20
122.3982297150257
 10
68.90650609778476
 20
122.3885991683701
 10
68.71235973441162
 20
122.35980027583217
 10
68.52197102393495
 20
122.31211038649012
 10
68.3371735137137
 20
122.24598878004828
 10
68.15974690479189
 20
122.16207224372242
 10
67.99139991240467
 20
122.0611689396308
 10
67.83375381011659
 20
121.94425062175118
 10
67.68832681607078
 20
121.8124432773988
 10
67.5565194717184
 20
121.667016283353
 10
67.4396011538388
 20
121.50937018106491
 10
67.33869784974716
 20
121.3410231886777
 10
67.2547813134213
 20
121.16359657975589
 10
67.18865970697945
 20
120.97879906953463
 10
67.14096981763741
 20
120.78841035905796
 10
67.11217092509949
 20
120.59426399568483
 10
67.10254037844388
 20
120.3982297150257
 10
67.10254037844388
 20
88.3982297150257
 10
67.11217092509949
 20
88.20219543436659
 10
67.14096981763741
 20
88.00804907099345
 10
67.18865970697945
 20
87.81766036051678
 10
67.2547813134213
 20
87.63286285029552
 10
67.33869784974716
 20
87.45543624137372
 10
67.4396011538388
 20
87.2870892489865
 10
67.5565194717184
 20
87.12944314669842
 10
67.68832681607078
 20
86.98401615265261
 10
67.83375381011658
 20
86.85220880830023
 10
67.99139991240467
 20
86.73529049042061
 10
68.15974690479189
 20
86.634387186329
 10
68.3371735137137
 20
86.55047065000313
 10
68.52197102393495
 20
86.4843490435613
 10
68.71235973441162
 20
86.43665915421924
 10
68.90650609778476
 20
86.40786026168131
 10
69.10254037844388
 20
86.3982297150257
 10
101.10254037844388
 20
86.3982297150257
 10
101.298574659103
 20
86.40786026168131
 10
101.49272102247613
 20
86.43665915421924
 10
101.6831097329528
 20
86.4843490435613
 10
101.86790724317406
 20
86.55047065000313
 10
102.04533385209587
 20
86.634387186329
 10
102.21368084448308
 20
86.73529049042061
 10
102.37132694677116
 20
86.85220880830023
 10
102.51675394081697
 20
86.98401615265261
 10
102.64856128516935
 20
87.12944314669842
 10
102.76547960304896
 20
87.2870892489865
 10
102.86638290714059
 20
87.45543624137372
 10
102.95029944346645
 20
87.63286285029552
  0
LWPOLYLINE
  5
9D
330
17
100
AcDbEntity
  8
CUT
100
AcDbPolyline
 90
67
 70
1
 10
390.2255232004219
 20
64.97879906953463
 10
390.17783331107984
 20
64.78841035905796
 10
390.14903441854193
 20
64.59426399568483
 10
390.1394038718863
 20
64.3982297150257
 10
390.1394038718863
 20
32.39822971502571
 10
390.14903441854193
 20
32.20219543436659
 10
390.17783331107984
 20
32.00804907099345
 10
390.2255232004219
 20
31.817660360516786
 10
390.29164480686376
 20
31.63286285029553
 10
390.3755613431896
 20
31.455436241373715
 10
390.4764646472812
 20
31.287089248986508
 10
390.59338296516086
 20
31.12944314669842
 10
390.7251903095132
 20
30.984016152652615
 10
390.870617303559
 20
30.852208808300237
 10
391.0282634058471
 20
30.73529049042062
 10
391.1966103982343
 20
30.634387186329
 10
391.3740370071561
 20
30.550470650003138
 10
391.55883451737736
 20
30.48434904356129
 10
391.74922322785403
 20
30.43665915421925
 10
391.9433695912272
 20
30.407860261681318
 10
392.1394038718863
 20
30.39822971502571
 10
392.3354381525454
 20
30.407860261681318
 10
392.5295845159186
 20
30.43665915421925
 10
392.71997322639527
 20
30.48434904356129
 10
392.9047707366165
 20
30.550470650003138
 10
393.0821973455383
 20
30.634387186329
 10
393.25054433792553
 20
30.73529049042062
 10
393.4081904402136
 20
30.852208808300237
 10
393.5536174342594
 20
30.984016152652615
 10
393.6854247786118
 20
31.12944314669842
 10
393.8023430964914
 20
31.287089248986508
 10
393.90324640058304
 20
31.455436241373715
 10
393.9871629369089
 20
31.63286285029553
 10
394.05328454335074
 20
31.817660360516786
 10
394.1009744326928
 20
32.00804907099345
 10
394.1297733252307
 20
32.20219543436659
 10
394.1394038718863
 20
32.39822971502571
 10
394.1394038718863
 20
64.3982297150257
 10
394.1297733252307
 20
64.59426399568483
 10
394.1009744326928
 20
64.78841035905796
 10
394.05328454335074
 20
64.97879906953463
 10
393.9871629369089
 20
65.16359657975589
 10
393.90324640058304
 20
65.34102318867771
 10
393.8023430964914
 20
65.50937018106491
 10
393.6854247786118
 20
65.66701628335301
 10
393.5536174342594
 20
65.8124432773988
 10
393.4081904402136
 20
65.94425062175118
 10
393.25054433792553
 20
66.0611689396308
 10
393.0821973455383
 20
66.16207224372242
 10
392.9047707366165
 20
66.24598878004828
 10
392.71997322639527
 20
66.31211038649013
 10
392.5295845159186
 20
66.35980027583217
 10
392.3354381525454
 20
66.3885991683701
 10
392.1394038718863
 20
66.3982297150257
 10
391.9433695912272
 20
66.3885991683701
 10
391.74922322785403
 20
66.35980027583217
 10
391.55883451737736
 20
66.31211038649013
 10
391.3740370071561
 20
66.24598878004828
 10
391.1966103982343
 20
66.16207224372242
 10
391.0282634058471
 20
66.0611689396308
 10
390.870617303559
 20
65.94425062175118
 10
390.7251903095132
 20
65.8124432773988
 10
390.59338296516086
 20
65.66701628335301
 10
390.4764646472812
 20
65.50937018106491
 10
390.3755613431896
 20
65.34102318867771
 10
390.29164480686376
 20
65.16359657975589
 10
390.2255232004219
 20
64.97879906953463
  0
LWPOLYLINE
  5
9E
330
17
100
AcDbEntity
  8
CUT
100
AcDbPolyline
 90
67
 70
1
 10
399.2255232004219
 20
64.97879906953463
 10
399.17783331107984
 20
64.78841035905796
 10
399.14903441854193
 20
64.59426399568483
 10
399.1394038718863
 20
64.3982297150257
 10
399.1394038718863
 20
32.39822971502571
 10
399.14903441854193
 20
32.20219543436659
 10
399.17783331107984
 20
32.00804907099345
 10
399.2255232004219
 20
31.817660360516786
 10
399.29164480686376
 20
31.63286285029553
 10
399.3755613431896
 20
31.455436241373715
 10
399.4764646472812
 20
31.287089248986508
 10
399.59338296516086
 20
31.12944314669842
 10
399.7251903095132
 20
30.984016152652615
 10
399.870617303559
 20
30.852208808300237
 10
400.0282634058471
 20
30.73529049042062
 10
400.1966103982343
 20
30.634387186329
 10
400.3740370071561
 20
30.550470650003138
 10
400.55883451737736
 20
30.48434904356129
 10
400.74922322785403
 20
30.43665915421925
 10
400.9433695912272
 20
30.407860261681318
 10
401.1394038718863
 20
30.39822971502571
 10
401.3354381525454
 20
30.407860261681318
 10
401.5295845159186
 20
30.43665915421925
 10
401.71997322639527
 20
30.48434904356129
 10
401.9047707366165
 20
30.550470650003138
 10
402.0821973455383
 20
30.634387186329
 10
402.25054433792553
 20
30.73529049042062
 10
402.4081904402136
 20
30.852208808300237
 10
402.5536174342594
 20
30.984016152652615
 10
402.6854247786118
 20
31.12944314669842
 10
402.8023430964914
 20
31.287089248986508
 10
402.90324640058304
 20
31.455436241373715
 10
402.9871629369089
 20
31.63286285029553
 10
403.05328454335074
 20
31.817660360516786
 10
403.1009744326928
 20
32.00804907099345
 10
403.1297733252307
 20
32.20219543436659
 10
403.1394038718863
 20
32.39822971502571
 10
403.1394038718863
 20
64.3982297150257
 10
403.1297733252307
 20
64.59426399568483
 10
403.1009744326928
 20
64.78841035905796
 10
403.05328454335074
 20
64.97879906953463
 10
402.9871629369089
 20
65.16359657975589
 10
402.90324640058304
 20
65.34102318867771
 10
402.8023430964914
 20
65.50937018106491
 10
402.6854247786118
 20
65.66701628335301
 10
402.5536174342594
 20
65.8124432773988
 10
402.4081904402136
 20
65.94425062175118
 10
402.25054433792553
 20
66.0611689396308
 10
402.0821973455383
 20
66.16207224372242
 10
401.9047707366165
 20
66.24598878004828
 10
401.71997322639527
 20
66.31211038649013
 10
401.5295845159186
 20
66.35980027583217
 10
401.3354381525454
 20
66.3885991683701
 10
401.1394038718863
 20
66.3982297150257
 10
400.9433695912272
 20
66.3885991683701
 10
400.74922322785403
 20
66.35980027583217
 10
400.55883451737736
 20
66.31211038649013
 10
400.3740370071561
 20
66.24598878004828
 10
400.1966103982343
 20
66.16207224372242
 10
400.0282634058471
 20
66.0611689396308
 10
399.870617303559
 20
65.94425062175118
 10
399.7251903095132
 20
65.8124432773988
 10
399.59338296516086
 20
65.66701628335301
 10
399.4764646472812
 20
65.50937018106491
 10
399.3755613431896
 20
65.34102318867771
 10
399.29164480686376
 20
65.16359657975589
 10
399.2255232004219
 20
64.97879906953463
  0
LWPOLYLINE
  5
9F
330
17
100
AcDbEntity
  8
CUT
100
AcDbPolyline
 90
67
 70
1
 10
408.2255232004219
 20
64.97879906953463
 10
408.17783331107984
 20
64.78841035905796
 10
408.14903441854193
 20
64.59426399568483
 10
408.1394038718863
 20
64.3982297150257
 10
408.1394038718863
 20
32.39822971502571
 10
408.14903441854193
 20
32.20219543436659
 10
408.17783331107984
 20
32.00804907099345
 10
408.2255232004219
 20
31.817660360516786
 10
408.29164480686376
 20
31.63286285029553
 10
408.3755613431896
 20
31.455436241373715
 10
408.4764646472812
 20
31.287089248986508
 10
408.59338296516086
 20
31.12944314669842
 10
408.7251903095132
 20
30.984016152652615
 10
408.870617303559
 20
30.852208808300237
 10
409.0282634058471
 20
30.73529049042062
 10
409.1966103982343
 20
30.634387186329
 10
409.3740370071561
 20
30.550470650003138
 10
409.55883451737736
 20
30.48434904356129
 10
409.74922322785403
 20
30.43665915421925
 10
409.9433695912272
 20
30.407860261681318
 10
410.1394038718863
 20
30.39822971502571
 10
410.3354381525454
 20
30.407860261681318
 10
410.5295845159186
 20
30.43665915421925
 10
410.71997322639527
 20
30.48434904356129
 10
410.9047707366165
 20
30.550470650003138
 10
411.0821973455383
 20
30.634387186329
 10
411.25054433792553
 20
30.73529049042062
 10
411.4081904402136
 20
30.852208808300237
 10
411.5536174342594
 20
30.984016152652615
 10
411.6854247786118
 20
31.12944314669842
 10
411.8023430964914
 20
31.287089248986508
 10
411.90324640058304
 20
31.455436241373715
 10
411.9871629369089
 20
31.63286285029553
 10
412.05328454335074
 20
31.817660360516786
 10
412.1009744326928
 20
32.00804907099345
 10
412.1297733252307
 20
32.20219543436659
 10
412.1394038718863
 20
32.39822971502571
 10
412.1394038718863
 20
64.3982297150257
 10
412.1297733252307
 20
64.59426399568483
 10
412.1009744326928
 20
64.78841035905796
 10
412.05328454335074
 20
64.97879906953463
 10
411.9871629369089
 20
65.16359657975589
 10
411.90324640058304
 20
65.34102318867771
 10
411.8023430964914
 20
65.50937018106491
 10
411.6854247786118
 20
65.66701628335301
 10
411.5536174342594
 20
65.8124432773988
 10
411.4081904402136
 20
65.94425062175118
 10
411.25054433792553
 20
66.0611689396308
 10
411.0821973455383
 20
66.16207224372242
 10
410.9047707366165
 20
66.24598878004828
 10
410.71997322639527
 20
66.31211038649013
 10
410.5295845159186
 20
66.35980027583217
 10
410.3354381525454
 20
66.3885991683701
 10
410.1394038718863
 20
66.3982297150257
 10
409.9433695912272
 20
66.3885991683701
 10
409.74922322785403
 20
66.35980027583217
 10
409.55883451737736
 20
66.31211038649013
 10
409.3740370071561
 20
66.24598878004828
 10
409.1966103982343
 20
66.16207224372242
 10
409.0282634058471
 20
66.0611689396308
 10
408.870617303559
 20
65.94425062175118
 10
408.7251903095132
 20
65.8124432773988
 10
408.59338296516086
 20
65.66701628335301
 10
408.4764646472812
 20
65.50937018106491
 10
408.3755613431896
 20
65.34102318867771
 10
408.29164480686376
 20
65.16359657975589
 10
408.2255232004219
 20
64.97879906953463
  0
LWPOLYLINE
  5
A0
330
17
100
AcDbEntity
  8
CUT
100
AcDbPolyline
 90
67
 70
1
 10
417.29164480686376
 20
65.16359657975589
 10
417.2255232004219
 20
64.97879906953463
 10
417.17783331107984
 20
64.78841035905796
 10
417.14903441854193
 20
64.59426399568483
 10
417.1394038718863
 20
64.3982297150257
 10
417.1394038718863
 20
32.39822971502571
 10
417.14903441854193
 20
32.20219543436659
 10
417.17783331107984
 20
32.00804907099345
 10
417.2255232004219
 20
31.817660360516786
 10
417.29164480686376
 20
31.63286285029553
 10
417.3755613431896
 20
31.455436241373715
 10
417.4764646472812
 20
31.287089248986508
 10
417.59338296516086
 20
31.12944314669842
 10
417.7251903095132
 20
30.984016152652615
 10
417.870617303559
 20
30.852208808300237
 10
418.0282634058471
 20
30.73529049042062
 10
418.1966103982343
 20
30.634387186329
 10
418.3740370071561
 20
30.550470650003138
 10
418.55883451737736
 20
30.48434904356129
 10
418.74922322785403
 20
30.43665915421925
 10
418.94336959122717
 20
30.407860261681318
 10
419.1394038718863
 20
30.39822971502571
 10
419.33543815254546
 20
30.407860261681318
 10
419.5295845159186
 20
30.43665915421925
 10
419.71997322639527
 20
30.48434904356129
 10
419.9047707366165
 20
30.550470650003138
 10
420.0821973455383
 20
30.634387186329
 10
420.25054433792553
 20
30.73529049042062
 10
420.4081904402136
 20
30.852208808300237
 10
420.5536174342594
 20
30.984016152652615
 10
420.6854247786118
 20
31.12944314669842
 10
420.8023430964914
 20
31.287089248986508
 10
420.90324640058304
 20
31.455436241373715
 10
420.9871629369089
 20
31.63286285029553
 10
421.05328454335074
 20
31.817660360516786
 10
421.1009744326928
 20
32.00804907099345
 10
421.1297733252307
 20
32.20219543436659
 10
421.1394038718863
 20
32.39822971502571
 10
421.1394038718863
 20
64.3982297150257
 10
421.1297733252307
 20
64.59426399568483
 10
421.1009744326928
 20
64.78841035905796
 10
421.05328454335074
 20
64.97879906953463
 10
420.9871629369089
 20
65.16359657975589
 10
420.90324640058304
 20
65.34102318867771
 10
420.8023430964914
 20
65.50937018106491
 10
420.6854247786118
 20
65.66701628335301
 10
420.5536174342594
 20
65.8124432773988
 10
420.4081904402136
 20
65.94425062175118
 10
420.25054433792553
 20
66.0611689396308
 10
420.0821973455383
 20
66.16207224372242
 10
419.9047707366165
 20
66.24598878004828
 10
419.71997322639527
 20
66.31211038649013
 10
419.5295845159186
 20
66.35980027583217
 10
419.33543815254546
 20
66.3885991683701
 10
419.1394038718863
 20
66.3982297150257
 10
418.94336959122717
 20
66.3885991683701
 10
418.74922322785403
 20
66.35980027583217
 10
418.55883451737736
 20
66.31211038649013
 10
418.3740370071561
 20
66.24598878004828
 10
418.1966103982343
 20
66.16207224372242
 10
418.0282634058471
 20
66.0611689396308
 10
417.870617303559
 20
65.94425062175118
 10
417.7251903095132
 20
65.8124432773988
 10
417.59338296516086
 20
65.66701628335301
 10
417.4764646472812
 20
65.50937018106491
 10
417.3755613431896
 20
65.34102318867771
 10
417.29164480686376
 20
65.16359657975589
  0
LWPOLYLINE
  5
A1
330
17
100
AcDbEntity
  8
CUT
100
AcDbPolyline
 90
67
 70
1
 10
426.29164480686376
 20
65.16359657975589
 10
426.2255232004219
 20
64.97879906953463
 10
426.17783331107984
 20
64.78841035905796
 10
426.14903441854193
 20
64.59426399568483
 10
426.1394038718863
 20
64.3982297150257
 10
426.1394038718863
 20
32.39822971502571
 10
426.14903441854193
 20
32.20219543436659
 10
426.17783331107984
 20
32.00804907099345
 10
426.2255232004219
 20
31.817660360516786
 10
426.29164480686376
 20
31.63286285029553
 10
426.3755613431896
 20
31.455436241373715
 10
426.4764646472812
 20
31.287089248986508
 10
426.59338296516086
 20
31.12944314669842
 10
426.7251903095132
 20
30.984016152652615
 10
426.870617303559
 20
30.852208808300237
 10
427.0282634058471
 20
30.73529049042062
 10
427.1966103982343
 20
30.634387186329
 10
427.3740370071561
 20
30.550470650003138
 10
427.55883451737736
 20
30.48434904356129
 10
427.74922322785403
 20
30.43665915421925
 10
427.94336959122717
 20
30.407860261681318
 10
428.1394038718863
 20
30.39822971502571
 10
428.33543815254546
 20
30.407860261681318
 10
428.5295845159186
 20
30.43665915421925
 10
428.71997322639527
 20
30.48434904356129
 10
428.9047707366165
 20
30.550470650003138
 10
429.0821973455383
 20
30.634387186329
 10
429.25054433792553
 20
30.73529049042062
 10
429.4081904402136
 20
30.852208808300237
 10
429.5536174342594
 20
30.984016152652615
 10
429.6854247786118
 20
31.12944314669842
 10
429.8023430964914
 20
31.287089248986508
 10
429.90324640058304
 20
31.455436241373715
 10
429.9871629369089
 20
31.63286285029553
 10
430.05328454335074
 20
31.817660360516786
 10
430.1009744326928
 20
32.00804907099345
 10
430.1297733252307
 20
32.20219543436659
 10
430.1394038718863
 20
32.39822971502571
 10
430.1394038718863
 20
64.3982297150257
 10
430.1297733252307
 20
64.59426399568483
 10
430.1009744326928
 20
64.78841035905796
 10
430.05328454335074
 20
64.97879906953463
 10
429.9871629369089
 20
65.16359657975589
 10
429.90324640058304
 20
65.34102318867771
 10
429.8023430964914
 20
65.50937018106491
 10
429.6854247786118
 20
65.66701628335301
 10
429.5536174342594
 20
65.8124432773988
 10
429.4081904402136
 20
65.94425062175118
 10
429.25054433792553
 20
66.0611689396308
 10
429.0821973455383
 20
66.16207224372242
 10
428.9047707366165
 20
66.24598878004828
 10
428.71997322639527
 20
66.31211038649013
 10
428.5295845159186
 20
66.35980027583217
 10
428.33543815254546
 20
66.3885991683701
 10
428.1394038718863
 20
66.3982297150257
 10
427.94336959122717
 20
66.3885991683701
 10
427.74922322785403
 20
66.35980027583217
 10
427.55883451737736
 20
66.31211038649013
 10
427.3740370071561
 20
66.24598878004828
 10
427.1966103982343
 20
66.16207224372242
 10
427.0282634058471
 20
66.0611689396308
 10
426.870617303559
 20
65.94425062175118
 10
426.7251903095132
 20
65.8124432773988
 10
426.59338296516086
 20
65.66701628335301
 10
426.4764646472812
 20
65.50937018106491
 10
426.3755613431896
 20
65.34102318867771
 10
426.29164480686376
 20
65.16359657975589
  0
LWPOLYLINE
  5
A2
330
17
100
AcDbEntity
  8
CUT
100
AcDbPolyline
 90
67
 70
1
 10
435.2255232004219
 20
64.97879906953463
 10
435.17783331107984
 20
64.78841035905796
 10
435.14903441854193
 20
64.59426399568483
 10
435.1394038718863
 20
64.3982297150257
 10
435.1394038718863
 20
32.39822971502571
 10
435.14903441854193
 20
32.20219543436659
 10
435.17783331107984
 20
32.00804907099345
 10
435.2255232004219
 20
31.817660360516786
 10
435.29164480686376
 20
31.63286285029553
 10
435.3755613431896
 20
31.455436241373715
 10
435.4764646472812
 20
31.287089248986508
 10
435.59338296516086
 20
31.12944314669842
 10
435.7251903095132
 20
30.984016152652615
 10
435.870617303559
 20
30.852208808300237
 10
436.0282634058471
 20
30.73529049042062
 10
436.1966103982343
 20
30.634387186329
 10
436.3740370071561
 20
30.550470650003138
 10
436.55883451737736
 20
30.48434904356129
 10
436.74922322785403
 20
30.43665915421925
 10
436.94336959122717
 20
30.407860261681318
 10
437.1394038718863
 20
30.39822971502571
 10
437.33543815254546
 20
30.407860261681318
 10
437.5295845159186
 20
30.43665915421925
 10
437.71997322639527
 20
30.48434904356129
 10
437.9047707366165
 20
30.550470650003138
 10
438.0821973455383
 20
30.634387186329
 10
438.25054433792553
 20
30.73529049042062
 10
438.4081904402136
 20
30.852208808300237
 10
438.5536174342594
 20
30.984016152652615
 10
438.6854247786118
 20
31.12944314669842
 10
438.8023430964914
 20
31.287089248986508
 10
438.90324640058304
 20
31.455436241373715
 10
438.9871629369089
 20
31.63286285029553
 10
439.05328454335074
 20
31.817660360516786
 10
439.1009744326928
 20
32.00804907099345
 10
439.1297733252307
 20
32.20219543436659
 10
439.1394038718863
 20
32.39822971502571
 10
439.1394038718863
 20
64.3982297150257
 10
439.1297733252307
 20
64.59426399568483
 10
439.1009744326928
 20
64.78841035905796
 10
439.05328454335074
 20
64.97879906953463
 10
438.9871629369089
 20
65.16359657975589
 10
438.90324640058304
 20
65.34102318867771
 10
438.8023430964914
 20
65.50937018106491
 10
438.6854247786118
 20
65.66701628335301
 10
438.5536174342594
 20
65.8124432773988
 10
438.4081904402136
 20
65.94425062175118
 10
438.25054433792553
 20
66.0611689396308
 10
438.0821973455383
 20
66.16207224372242
 10
437.9047707366165
 20
66.24598878004828
 10
437.71997322639527
 20
66.31211038649013
 10
437.5295845159186
 20
66.35980027583217
 10
437.33543815254546
 20
66.3885991683701
 10
437.1394038718863
 20
66.3982297150257
 10
436.94336959122717
 20
66.3885991683701
 10
436.74922322785403
 20
66.35980027583217
 10
436.55883451737736
 20
66.31211038649013
 10
436.3740370071561
 20
66.24598878004828
 10
436.1966103982343
 20
66.16207224372242
 10
436.0282634058471
 20
66.0611689396308
 10
435.870617303559
 20
65.94425062175118
 10
435.7251903095132
 20
65.8124432773988
 10
435.59338296516086
 20
65.66701628335301
 10
435.4764646472812
 20
65.50937018106491
 10
435.3755613431896
 20
65.34102318867771
 10
435.29164480686376
 20
65.16359657975589
 10
435.2255232004219
 20
64.97879906953463
  0
LWPOLYLINE
  5
A3
330
17
100
AcDbEntity
  8
CUT
100
AcDbPolyline
 90
67
 70
1
 10
444.29164480686376
 20
65.16359657975589
 10
444.2255232004219
 20
64.97879906953463
 10
444.17783331107984
 20
64.78841035905796
 10
444.14903441854193
 20
64.59426399568483
 10
444.1394038718863
 20
64.3982297150257
 10
444.1394038718863
 20
32.39822971502571
 10
444.14903441854193
 20
32.20219543436659
 10
444.17783331107984
 20
32.00804907099345
 10
444.2255232004219
 20
31.817660360516786
 10
444.29164480686376
 20
31.63286285029553
 10
444.3755613431896
 20
31.455436241373715
 10
444.4764646472812
 20
31.287089248986508
 10
444.59338296516086
 20
31.12944314669842
 10
444.7251903095132
 20
30.984016152652615
 10
444.870617303559
 20
30.852208808300237
 10
445.0282634058471
 20
30.73529049042062
 10
445.1966103982343
 20
30.634387186329
 10
445.3740370071561
 20
30.550470650003138
 10
445.55883451737736
 20
30.48434904356129
 10
445.74922322785403
 20
30.43665915421925
 10
445.9433695912272
 20
30.407860261681318
 10
446.1394038718863
 20
30.39822971502571
 10
446.3354381525454
 20
30.407860261681318
 10
446.5295845159186
 20
30.43665915421925
 10
446.71997322639527
 20
30.48434904356129
 10
446.9047707366165
 20
30.550470650003138
 10
447.0821973455383
 20
30.634387186329
 10
447.25054433792553
 20
30.73529049042062
 10
447.4081904402136
 20
30.852208808300237
 10
447.5536174342594
 20
30.984016152652615
 10
447.6854247786118
 20
31.12944314669842
 10
447.8023430964914
 20
31.287089248986508
 10
447.90324640058304
 20
31.455436241373715
 10
447.9871629369089
 20
31.63286285029553
 10
448.05328454335074
 20
31.817660360516786
 10
448.1009744326928
 20
32.00804907099345
 10
448.1297733252307
 20
32.20219543436659
 10
448.1394038718863
 20
32.39822971502571
 10
448.1394038718863
 20
64.3982297150257
 10
448.1297733252307
 20
64.59426399568483
 10
448.1009744326928
 20
64.78841035905796
 10
448.05328454335074
 20
64.97879906953463
 10
447.9871629369089
 20
65.16359657975589
 10
447.90324640058304
 20
65.34102318867771
 10
447.8023430964914
 20
65.50937018106491
 10
447.6854247786118
 20
65.66701628335301
 10
447.5536174342594
 20
65.8124432773988
 10
447.4081904402136
 20
65.94425062175118
 10
447.25054433792553
 20
66.0611689396308
 10
447.0821973455383
 20
66.16207224372242
 10
446.9047707366165
 20
66.24598878004828
 10
446.71997322639527
 20
66.31211038649013
 10
446.5295845159186
 20
66.35980027583217
 10
446.3354381525454
 20
66.3885991683701
 10
446.1394038718863
 20
66.3982297150257
 10
445.9433695912272
 20
66.3885991683701
 10
445.74922322785403
 20
66.35980027583217
 10
445.55883451737736
 20
66.31211038649013
 10
445.3740370071561
 20
66.24598878004828
 10
445.1966103982343
 20
66.16207224372242
 10
445.0282634058471
 20
66.0611689396308
 10
444.870617303559
 20
65.94425062175118
 10
444.7251903095132
 20
65.8124432773988
 10
444.59338296516086
 20
65.66701628335301
 10
444.4764646472812
 20
65.50937018106491
 10
444.3755613431896
 20
65.34102318867771
 10
444.29164480686376
 20
65.16359657975589
  0
LWPOLYLINE
  5
A4
330
17
100
AcDbEntity
  8
CUT
100
AcDbPolyline
 90
67
 70
1
 10
453.29164480686376
 20
65.16359657975589
 10
453.2255232004219
 20
64.97879906953463
 10
453.17783331107984
 20
64.78841035905796
 10
453.14903441854193
 20
64.59426399568483
 10
453.1394038718863
 20
64.3982297150257
 10
453.1394038718863
 20
32.39822971502571
 10
453.14903441854193
 20
32.20219543436659
 10
453.17783331107984
 20
32.00804907099345
 10
453.2255232004219
 20
31.817660360516786
 10
453.29164480686376
 20
31.63286285029553
 10
453.3755613431896
 20
31.455436241373715
 10
453.4764646472812
 20
31.287089248986508
 10
453.59338296516086
 20
31.12944314669842
 10
453.7251903095132
 20
30.984016152652615
 10
453.870617303559
 20
30.852208808300237
 10
454.0282634058471
 20
30.73529049042062
 10
454.1966103982343
 20
30.634387186329
 10
454.3740370071561
 20
30.550470650003138
 10
454.55883451737736
 20
30.48434904356129
 10
454.74922322785403
 20
30.43665915421925
 10
454.9433695912272
 20
30.407860261681318
 10
455.1394038718863
 20
30.39822971502571
 10
455.3354381525454
 20
30.407860261681318
 10
455.5295845159186
 20
30.43665915421925
 10
455.71997322639527
 20
30.48434904356129
 10
455.9047707366165
 20
30.550470650003138
 10
456.0821973455383
 20
30.634387186329
 10
456.25054433792553
 20
30.73529049042062
 10
456.4081904402136
 20
30.852208808300237
 10
456.5536174342594
 20
30.984016152652615
 10
456.6854247786118
 20
31.12944314669842
 10
456.8023430964914
 20
31.287089248986508
 10
456.90324640058304
 20
31.455436241373715
 10
456.9871629369089
 20
31.63286285029553
 10
457.05328454335074
 20
31.817660360516786
 10
457.1009744326928
 20
32.00804907099345
 10
457.1297733252307
 20
32.20219543436659
 10
457.1394038718863
 20
32.39822971502571
 10
457.1394038718863
 20
64.3982297150257
 10
457.1297733252307
 20
64.59426399568483
 10
457.1009744326928
 20
64.78841035905796
 10
457.05328454335074
 20
64.97879906953463
 10
456.9871629369089
 20
65.16359657975589
 10
456.90324640058304
 20
65.34102318867771
 10
456.8023430964914
 20
65.50937018106491
 10
456.6854247786118
 20
65.66701628335301
 10
456.5536174342594
 20
65.8124432773988
 10
456.4081904402136
 20
65.94425062175118
 10
456.25054433792553
 20
66.0611689396308
 10
456.0821973455383
 20
66.16207224372242
 10
455.9047707366165
 20
66.24598878004828
 10
455.71997322639527
 20
66.31211038649013
 10
455.5295845159186
 20
66.35980027583217
 10
455.3354381525454
 20
66.3885991683701
 10
455.1394038718863
 20
66.3982297150257
 10
454.9433695912272
 20
66.3885991683701
 10
454.74922322785403
 20
66.35980027583217
 10
454.55883451737736
 20
66.31211038649013
 10
454.3740370071561
 20
66.24598878004828
 10
454.1966103982343
 20
66.16207224372242
 10
454.0282634058471
 20
66.0611689396308
 10
453.870617303559
 20
65.94425062175118
 10
453.7251903095132
 20
65.8124432773988
 10
453.59338296516086
 20
65.66701628335301
 10
453.4764646472812
 20
65.50937018106491
 10
453.3755613431896
 20
65.34102318867771
 10
453.29164480686376
 20
65.16359657975589
  0
LWPOLYLINE
  5
A5
330
17
100
AcDbEntity
  8
CUT
100
AcDbPolyline
 90
67
 70
1
 10
462.2255232004219
 20
64.97879906953463
 10
462.17783331107984
 20
64.78841035905796
 10
462.14903441854193
 20
64.59426399568483
 10
462.1394038718863
 20
64.3982297150257
 10
462.1394038718863
 20
32.39822971502571
 10
462.14903441854193
 20
32.20219543436659
 10
462.17783331107984
 20
32.00804907099345
 10
462.2255232004219
 20
31.817660360516786
 10
462.29164480686376
 20
31.63286285029553
 10
462.3755613431896
 20
31.455436241373715
 10
462.4764646472812
 20
31.287089248986508
 10
462.59338296516086
 20
31.12944314669842
 10
462.7251903095132
 20
30.984016152652615
 10
462.870617303559
 20
30.852208808300237
 10
463.0282634058471
 20
30.73529049042062
 10
463.1966103982343
 20
30.634387186329
 10
463.3740370071561
 20
30.550470650003138
 10
463.55883451737736
 20
30.48434904356129
 10
463.74922322785403
 20
30.43665915421925
 10
463.9433695912272
 20
30.407860261681318
 10
464.1394038718863
 20
30.39822971502571
 10
464.3354381525454
 20
30.407860261681318
 10
464.5295845159186
 20
30.43665915421925
 10
464.71997322639527
 20
30.48434904356129
 10
464.9047707366165
 20
30.550470650003138
 10
465.0821973455383
 20
30.634387186329
 10
465.25054433792553
 20
30.73529049042062
 10
465.4081904402136
 20
30.852208808300237
 10
465.5536174342594
 20
30.984016152652615
 10
465.6854247786118
 20
31.12944314669842
 10
465.8023430964914
 20
31.287089248986508
 10
465.90324640058304
 20
31.455436241373715
 10
465.9871629369089
 20
31.63286285029553
 10
466.05328454335074
 20
31.817660360516786
 10
466.1009744326928
 20
32.00804907099345
 10
466.1297733252307
 20
32.20219543436659
 10
466.1394038718863
 20
32.39822971502571
 10
466.1394038718863
 20
64.3982297150257
 10
466.1297733252307
 20
64.59426399568483
 10
466.1009744326928
 20
64.78841035905796
 10
466.05328454335074
 20
64.97879906953463
 10
465.9871629369089
 20
65.16359657975589
 10
465.90324640058304
 20
65.34102318867771
 10
465.8023430964914
 20
65.50937018106491
 10
465.6854247786118
 20
65.66701628335301
 10
465.5536174342594
 20
65.8124432773988
 10
465.4081904402136
 20
65.94425062175118
 10
465.25054433792553
 20
66.0611689396308
 10
465.0821973455383
 20
66.16207224372242
 10
464.9047707366165
 20
66.24598878004828
 10
464.71997322639527
 20
66.31211038649013
 10
464.5295845159186
 20
66.35980027583217
 10
464.3354381525454
 20
66.3885991683701
 10
464.1394038718863
 20
66.3982297150257
 10
463.9433695912272
 20
66.3885991683701
 10
463.74922322785403
 20
66.35980027583217
 10
463.55883451737736
 20
66.31211038649013
 10
463.3740370071561
 20
66.24598878004828
 10
463.1966103982343
 20
66.16207224372242
 10
463.0282634058471
 20
66.0611689396308
 10
462.870617303559
 20
65.94425062175118
 10
462.7251903095132
 20
65.8124432773988
 10
462.59338296516086
 20
65.66701628335301
 10
462.4764646472812
 20
65.50937018106491
 10
462.3755613431896
 20
65.34102318867771
 10
462.29164480686376
 20
65.16359657975589
 10
462.2255232004219
 20
64.97879906953463
  0
LWPOLYLINE
  5
A6
330
17
100
AcDbEntity
  8
CUT
100
AcDbPolyline
 90
69
 70
1
 10
274.46873119018767
 20
87.63286285029552
 10
274.53485279662954
 20
87.81766036051678
 10
274.5825426859716
 20
88.00804907099345
 10
274.6113415785095
 20
88.20219543436659
 10
274.6209721251651
 20
88.3982297150257
 10
274.6209721251651
 20
120.3982297150257
 10
274.6113415785095
 20
120.59426399568483
 10
274.5825426859716
 20
120.78841035905796
 10
274.53485279662954
 20
120.97879906953463
 10
274.46873119018767
 20
121.16359657975589
 10
274.38481465386184
 20
121.3410231886777
 10
274.2839113497702
 20
121.50937018106491
 10
274.16699303189057
 20
121.667016283353
 10
274.0351856875382
 20
121.8124432773988
 10
273.8897586934924
 20
121.94425062175118
 10
273.7321125912043
 20
122.0611689396308
 10
273.5637655988171
 20
122.16207224372242
 10
273.3863389898953
 20
122.24598878004828
 10
273.201541479674
 20
122.31211038649012
 10
273.01115276919734
 20
122.35980027583217
 10
272.81700640582426
 20
122.3885991683701
 10
272.6209721251651
 20
122.3982297150257
 10
240.6209721251651
 20
122.3982297150257
 10
240.424937844506
 20
122.3885991683701
 10
240.23079148113285
 20
122.35980027583217
 10
240.0404027706562
 20
122.31211038649012
 10
239.85560526043494
 20
122.24598878004828
 10
239.67817865151312
 20
122.16207224372242
 10
239.5098316591259
 20
122.0611689396308
 10
239.3521855568378
 20
121.94425062175118
 10
239.206758562792
 20
121.8124432773988
 10
239.07495121843965
 20
121.667016283353
 10
238.95803290056003
 20
121.50937018106491
 10
238.8571295964684
 20
121.3410231886777
 10
238.77321306014255
 20
121.16359657975589
 10
238.70709145370068
 20
120.97879906953463
 10
238.65940156435866
 20
120.78841035905796
 10
238.63060267182072
 20
120.59426399568483
 10
238.6209721251651
 20
120.3982297150257
 10
238.6209721251651
 20
88.3982297150257
 10
238.63060267182072
 20
88.20219543436659
 10
238.65940156435866
 20
88.00804907099345
 10
238.70709145370068
 20
87.81766036051678
 10
238.77321306014255
 20
87.63286285029552
 10
238.8571295964684
 20
87.45543624137372
 10
238.95803290056003
 20
87.2870892489865
 10
239.07495121843965
 20
87.12944314669842
 10
239.206758562792
 20
86.98401615265261
 10
239.3521855568378
 20
86.85220880830023
 10
239.5098316591259
 20
86.73529049042061
 10
239.67817865151312
 20
86.634387186329
 10
239.85560526043494
 20
86.55047065000313
 10
240.0404027706562
 20
86.4843490435613
 10
240.23079148113285
 20
86.43665915421924
 10
240.424937844506
 20
86.40786026168131
 10
240.6209721251651
 20
86.3982297150257
 10
272.6209721251651
 20
86.3982297150257
 10
272.81700640582426
 20
86.40786026168131
 10
273.01115276919734
 20
86.43665915421924
 10
273.201541479674
 20
86.4843490435613
 10
273.3863389898953
 20
86.55047065000313
 10
273.5637655988171
 20
86.634387186329
 10
273.7321125912043
 20
86.73529049042061
 10
273.8897586934924
 20
86.85220880830023
 10
274.0351856875382
 20
86.98401615265261
 10
274.16699303189057
 20
87.12944314669842
 10
274.2839113497702
 20
87.2870892489865
 10
274.38481465386184
 20
87.45543624137372
 10
274.46873119018767
 20
87.63286285029552
  0
LWPOLYLINE
  5
A7
330
17
100
AcDbEntity
  8
CUT
100
AcDbPolyline
 90
69
 70
1
 10
445.9871629369089
 20
87.63286285029552
 10
446.05328454335074
 20
87.81766036051678
 10
446.1009744326928
 20
88.00804907099345
 10
446.1297733252307
 20
88.20219543436659
 10
446.1394038718863
 20
88.3982297150257
 10
446.1394038718863
 20
120.3982297150257
 10
446.1297733252307
 20
120.59426399568483
 10
446.1009744326928
 20
120.78841035905796
 10
446.05328454335074
 20
120.97879906953463
 10
445.9871629369089
 20
121.16359657975589
 10
445.90324640058304
 20
121.3410231886777
 10
445.8023430964914
 20
121.50937018106491
 10
445.6854247786118
 20
121.667016283353
 10
445.5536174342594
 20
121.8124432773988
 10
445.4081904402136
 20
121.94425062175118
 10
445.25054433792553
 20
122.0611689396308
 10
445.0821973455383
 20
122.16207224372242
 10
444.9047707366165
 20
122.24598878004828
 10
444.71997322639527
 20
122.31211038649012
 10
444.5295845159186
 20
122.35980027583217
 10
444.3354381525454
 20
122.3885991683701
 10
444.1394038718863
 20
122.3982297150257
 10
412.1394038718863
 20
122.3982297150257
 10
411.9433695912272
 20
122.3885991683701
 10
411.74922322785403
 20
122.35980027583217
 10
411.55883451737736
 20
122.31211038649012
 10
411.3740370071561
 20
122.24598878004828
 10
411.1966103982343
 20
122.16207224372242
 10
411.0282634058471
 20
122.0611689396308
 10
410.870617303559
 20
121.94425062175118
 10
410.7251903095132
 20
121.8124432773988
 10
410.59338296516086
 20
121.667016283353
 10
410.4764646472812
 20
121.50937018106491
 10
410.3755613431896
 20
121.3410231886777
 10
410.29164480686376
 20
121.16359657975589
 10
410.2255232004219
 20
120.97879906953463
 10
410.17783331107984
 20
120.78841035905796
 10
410.14903441854193
 20
120.59426399568483
 10
410.1394038718863
 20
120.3982297150257
 10
410.1394038718863
 20
88.3982297150257
 10
410.14903441854193
 20
88.20219543436659
 10
410.17783331107984
 20
88.00804907099345
 10
410.2255232004219
 20
87.81766036051678
 10
410.29164480686376
 20
87.63286285029552
 10
410.3755613431896
 20
87.45543624137372
 10
410.4764646472812
 20
87.2870892489865
 10
410.59338296516086
 20
87.12944314669842
 10
410.7251903095132
 20
86.98401615265261
 10
410.870617303559
 20
86.85220880830023
 10
411.0282634058471
 20
86.73529049042061
 10
411.1966103982343
 20
86.634387186329
 10
411.3740370071561
 20
86.55047065000313
 10
411.55883451737736
 20
86.4843490435613
 10
411.74922322785403
 20
86.43665915421924
 10
411.9433695912272
 20
86.40786026168131
 10
412.1394038718863
 20
86.3982297150257
 10
444.1394038718863
 20
86.3982297150257
 10
444.3354381525454
 20
86.40786026168131
 10
444.5295845159186
 20
86.43665915421924
 10
444.71997322639527
 20
86.4843490435613
 10
444.9047707366165
 20
86.55047065000313
 10
445.0821973455383
 20
86.634387186329
 10
445.25054433792553
 20
86.73529049042061
 10
445.4081904402136
 20
86.85220880830023
 10
445.5536174342594
 20
86.98401615265261
 10
445.6854247786118
 20
87.12944314669842
 10
445.8023430964914
 20
87.2870892489865
 10
445.90324640058304
 20
87.45543624137372
 10
445.9871629369089
 20
87.63286285029552
  0
CIRCLE
  5
A8
330
17
100
AcDbEntity
  8
CUT
100
AcDbCircle
 10
61.10254037844388
 20
82.3982297150257
 30
0.0
 40
2.11
  0
CIRCLE
  5
A9
330
17
100
AcDbEntity
  8
PEM
100
AcDbCircle
 10
61.10254037844388
 20
82.3982297150257
 30
0.0
 40
3.3099999999999996
  0
CIRCLE
  5
AA
330
17
100
AcDbEntity
  8
CUT
100
AcDbCircle
 10
61.10254037844388
 20
126.3982297150257
 30
0.0
 40
2.11
  0
CIRCLE
  5
AB
330
17
100
AcDbEntity
  8
PEM
100
AcDbCircle
 10
61.10254037844388
 20
126.3982297150257
 30
0.0
 40
3.3099999999999996
  0
CIRCLE
  5
AC
330
17
100
AcDbEntity
  8
CUT
100
AcDbCircle
 10
109.10254037844388
 20
82.3982297150257
 30
0.0
 40
2.11
  0
CIRCLE
  5
AD
330
17
100
AcDbEntity
  8
PEM
100
AcDbCircle
 10
109.10254037844388
 20
82.3982297150257
 30
0.0
 40
3.3099999999999996
  0
CIRCLE
  5
AE
330
17
100
AcDbEntity
  8
CUT
100
AcDbCircle
 10
109.10254037844388
 20
126.3982297150257
 30
0.0
 40
2.11
  0
CIRCLE
  5
AF
330
17
100
AcDbEntity
  8
PEM
100
AcDbCircle
 10
109.10254037844388
 20
126.3982297150257
 30
0.0
 40
3.3099999999999996
  0
CIRCLE
  5
B0
330
17
100
AcDbEntity
  8
CUT
100
AcDbCircle
 10
11.655000000000001
 20
42.39822971502571
 30
0.0
 40
1.65
  0
CIRCLE
  5
B1
330
17
100
AcDbEntity
  8
CUT
100
AcDbCircle
 10
11.655000000000001
 20
77.3982297150257
 30
0.0
 40
1.65
  0
CIRCLE
  5
B2
330
17
100
AcDbEntity
  8
CUT
100
AcDbCircle
 10
11.655000000000001
 20
112.3982297150257
 30
0.0
 40
1.65
  0
CIRCLE
  5
B3
330
17
100
AcDbEntity
  8
CUT
100
AcDbCircle
 10
40.10254037844388
 20
8.0
 30
0.0
 40
2.7
  0
CIRCLE
  5
B4
330
17
100
AcDbEntity
  8
PEM
100
AcDbCircle
 10
40.10254037844388
 20
8.0
 30
0.0
 40
3.9000000000000004
  0
CIRCLE
  5
B5
330
17
100
AcDbEntity
  8
CUT
100
AcDbCircle
 10
40.10254037844388
 20
147.7964594300514
 30
0.0
 40
2.11
  0
CIRCLE
  5
B6
330
17
100
AcDbEntity
  8
PEM
100
AcDbCircle
 10
40.10254037844388
 20
147.7964594300514
 30
0.0
 40
3.3099999999999996
  0
CIRCLE
  5
B7
330
17
100
AcDbEntity
  8
CUT
100
AcDbCircle
 10
130.10254037844388
 20
8.0
 30
0.0
 40
2.7
  0
CIRCLE
  5
B8
330
17
100
AcDbEntity
  8
PEM
100
AcDbCircle
 10
130.10254037844388
 20
8.0
 30
0.0
 40
3.9000000000000004
  0
CIRCLE
  5
B9
330
17
100
AcDbEntity
  8
CUT
100
AcDbCircle
 10
130.10254037844388
 20
147.7964594300514
 30
0.0
 40
2.11
  0
CIRCLE
  5
BA
330
17
100
AcDbEntity
  8
PEM
100
AcDbCircle
 10
130.10254037844388
 20
147.7964594300514
 30
0.0
 40
3.3099999999999996
  0
CIRCLE
  5
BB
330
17
100
AcDbEntity
  8
CUT
100
AcDbCircle
 10
232.6209721251651
 20
82.3982297150257
 30
0.0
 40
2.11
  0
CIRCLE
  5
BC
330
17
100
AcDbEntity
  8
PEM
100
AcDbCircle
 10
232.6209721251651
 20
82.3982297150257
 30
0.0
 40
3.3099999999999996
  0
CIRCLE
  5
BD
330
17
100
AcDbEntity
  8
CUT
100
AcDbCircle
 10
232.6209721251651
 20
126.3982297150257
 30
0.0
 40
2.11
  0
CIRCLE
  5
BE
330
17
100
AcDbEntity
  8
PEM
100
AcDbCircle
 10
232.6209721251651
 20
126.3982297150257
 30
0.0
 40
3.3099999999999996
  0
CIRCLE
  5
BF
330
17
100
AcDbEntity
  8
CUT
100
AcDbCircle
 10
280.6209721251651
 20
82.3982297150257
 30
0.0
 40
2.11
  0
CIRCLE
  5
C0
330
17
100
AcDbEntity
  8
PEM
100
AcDbCircle
 10
280.6209721251651
 20
82.3982297150257
 30
0.0
 40
3.3099999999999996
  0
CIRCLE
  5
C1
330
17
100
AcDbEntity
  8
CUT
100
AcDbCircle
 10
280.6209721251651
 20
126.3982297150257
 30
0.0
 40
2.11
  0
CIRCLE
  5
C2
330
17
100
AcDbEntity
  8
PEM
100
AcDbCircle
 10
280.6209721251651
 20
126.3982297150257
 30
0.0
 40
3.3099999999999996
  0
CIRCLE
  5
C3
330
17
100
AcDbEntity
  8
CUT
100
AcDbCircle
 10
216.6209721251651
 20
26.39822971502571
 30
0.0
 40
2.11
  0
CIRCLE
  5
C4
330
17
100
AcDbEntity
  8
PEM
100
AcDbCircle
 10
216.6209721251651
 20
26.39822971502571
 30
0.0
 40
3.3099999999999996
  0
CIRCLE
  5
C5
330
17
100
AcDbEntity
  8
CUT
100
AcDbCircle
 10
216.6209721251651
 20
68.3982297150257
 30
0.0
 40
2.11
  0
CIRCLE
  5
C6
330
17
100
AcDbEntity
  8
PEM
100
AcDbCircle
 10
216.6209721251651
 20
68.3982297150257
 30
0.0
 40
3.3099999999999996
  0
CIRCLE
  5
C7
330
17
100
AcDbEntity
  8
CUT
100
AcDbCircle
 10
296.6209721251651
 20
26.39822971502571
 30
0.0
 40
2.11
  0
CIRCLE
  5
C8
330
17
100
AcDbEntity
  8
PEM
100
AcDbCircle
 10
296.6209721251651
 20
26.39822971502571
 30
0.0
 40
3.3099999999999996
  0
CIRCLE
  5
C9
330
17
100
AcDbEntity
  8
CUT
100
AcDbCircle
 10
296.6209721251651
 20
68.3982297150257
 30
0.0
 40
2.11
  0
CIRCLE
  5
CA
330
17
100
AcDbEntity
  8
PEM
100
AcDbCircle
 10
296.6209721251651
 20
68.3982297150257
 30
0.0
 40
3.3099999999999996
  0
CIRCLE
  5
CB
330
17
100
AcDbEntity
  8
CUT
100
AcDbCircle
 10
211.6209721251651
 20
8.0
 30
0.0
 40
2.7
  0
CIRCLE
  5
CC
330
17
100
AcDbEntity
  8
PEM
100
AcDbCircle
 10
211.6209721251651
 20
8.0
 30
0.0
 40
3.9000000000000004
  0
CIRCLE
  5
CD
330
17
100
AcDbEntity
  8
CUT
100
AcDbCircle
 10
211.6209721251651
 20
147.7964594300514
 30
0.0
 40
2.11
  0
CIRCLE
  5
CE
330
17
100
AcDbEntity
  8
PEM
100
AcDbCircle
 10
211.6209721251651
 20
147.7964594300514
 30
0.0
 40
3.3099999999999996
  0
CIRCLE
  5
CF
330
17
100
AcDbEntity
  8
CUT
100
AcDbCircle
 10
301.6209721251651
 20
8.0
 30
0.0
 40
2.7
  0
CIRCLE
  5
D0
330
17
100
AcDbEntity
  8
PEM
100
AcDbCircle
 10
301.6209721251651
 20
8.0
 30
0.0
 40
3.9000000000000004
  0
CIRCLE
  5
D1
330
17
100
AcDbEntity
  8
CUT
100
AcDbCircle
 10
301.6209721251651
 20
147.7964594300514
 30
0.0
 40
2.11
  0
CIRCLE
  5
D2
330
17
100
AcDbEntity
  8
PEM
100
AcDbCircle
 10
301.6209721251651
 20
147.7964594300514
 30
0.0
 40
3.3099999999999996
  0
CIRCLE
  5
D3
330
17
100
AcDbEntity
  8
CUT
100
AcDbCircle
 10
404.1394038718863
 20
82.3982297150257
 30
0.0
 40
2.11
  0
CIRCLE
  5
D4
330
17
100
AcDbEntity
  8
PEM
100
AcDbCircle
 10
404.1394038718863
 20
82.3982297150257
 30
0.0
 40
3.3099999999999996
  0
CIRCLE
  5
D5
330
17
100
AcDbEntity
  8
CUT
100
AcDbCircle
 10
404.1394038718863
 20
126.3982297150257
 30
0.0
 40
2.11
  0
CIRCLE
  5
D6
330
17
100
AcDbEntity
  8
PEM
100
AcDbCircle
 10
404.1394038718863
 20
126.3982297150257
 30
0.0
 40
3.3099999999999996
  0
CIRCLE
  5
D7
330
17
100
AcDbEntity
  8
CUT
100
AcDbCircle
 10
452.1394038718863
 20
82.3982297150257
 30
0.0
 40
2.11
  0
CIRCLE
  5
D8
330
17
100
AcDbEntity
  8
PEM
100
AcDbCircle
 10
452.1394038718863
 20
82.3982297150257
 30
0.0
 40
3.3099999999999996
  0
CIRCLE
  5
D9
330
17
100
AcDbEntity
  8
CUT
100
AcDbCircle
 10
452.1394038718863
 20
126.3982297150257
 30
0.0
 40
2.11
  0
CIRCLE
  5
DA
330
17
100
AcDbEntity
  8
PEM
100
AcDbCircle
 10
452.1394038718863
 20
126.3982297150257
 30
0.0
 40
3.3099999999999996
  0
CIRCLE
  5
DB
330
17
100
AcDbEntity
  8
CUT
100
AcDbCircle
 10
501.58694425033025
 20
42.39822971502571
 30
0.0
 40
1.65
  0
CIRCLE
  5
DC
330
17
100
AcDbEntity
  8
CUT
100
AcDbCircle
 10
501.58694425033025
 20
77.3982297150257
 30
0.0
 40
1.65
  0
CIRCLE
  5
DD
330
17
100
AcDbEntity
  8
CUT
100
AcDbCircle
 10
501.58694425033025
 20
112.3982297150257
 30
0.0
 40
1.65
  0
CIRCLE
  5
DE
330
17
100
AcDbEntity
  8
CUT
100
AcDbCircle
 10
383.1394038718863
 20
8.0
 30
0.0
 40
2.7
  0
CIRCLE
  5
DF
330
17
100
AcDbEntity
  8
PEM
100
AcDbCircle
 10
383.1394038718863
 20
8.0
 30
0.0
 40
3.9000000000000004
  0
CIRCLE
  5
E0
330
17
100
AcDbEntity
  8
CUT
100
AcDbCircle
 10
383.1394038718863
 20
147.7964594300514
 30
0.0
 40
2.11
  0
CIRCLE
  5
E1
330
17
100
AcDbEntity
  8
PEM
100
AcDbCircle
 10
383.1394038718863
 20
147.7964594300514
 30
0.0
 40
3.3099999999999996
  0
CIRCLE
  5
E2
330
17
100
AcDbEntity
  8
CUT
100
AcDbCircle
 10
473.1394038718863
 20
8.0
 30
0.0
 40
2.7
  0
CIRCLE
  5
E3
330
17
100
AcDbEntity
  8
PEM
100
AcDbCircle
 10
473.1394038718863
 20
8.0
 30
0.0
 40
3.9000000000000004
  0
CIRCLE
  5
E4
330
17
100
AcDbEntity
  8
CUT
100
AcDbCircle
 10
473.1394038718863
 20
147.7964594300514
 30
0.0
 40
2.11
  0
CIRCLE
  5
E5
330
17
100
AcDbEntity
  8
PEM
100
AcDbCircle
 10
473.1394038718863
 20
147.7964594300514
 30
0.0
 40
3.3099999999999996
  0
LINE
  5
E6
330
17
100
AcDbEntity
  8
BEND
100
AcDbLine
 10
170.86175625180448
 20
19.39822971502571
 30
0.0
 11
170.86175625180448
 21
136.3982297150257
 31
0.0
  0
TEXT
  5
E7
330
17
100
AcDbEntity
  8
NOTE
100
AcDbText
 10
173.86175625180448
 20
77.8982297150257
 30
0.0
 40
2.5
  1
BEND 60° IN  Ri2
 50
90.0
 72
1
 11
173.86175625180448
 21
77.8982297150257
 31
0.0
100
AcDbText
 73
1
  0
LINE
  5
E8
330
17
100
AcDbEntity
  8
BEND
100
AcDbLine
 10
342.38018799852574
 20
19.39822971502571
 30
0.0
 11
342.38018799852574
 21
136.3982297150257
 31
0.0
  0
TEXT
  5
E9
330
17
100
AcDbEntity
  8
NOTE
100
AcDbText
 10
345.38018799852574
 20
77.8982297150257
 30
0.0
 40
2.5
  1
BEND 60° IN  Ri2
 50
90.0
 72
1
 11
345.38018799852574
 21
77.8982297150257
 31
0.0
100
AcDbText
 73
1
  0
LINE
  5
EA
330
17
100
AcDbEntity
  8
BEND
100
AcDbLine
 10
0.0
 20
17.199114857512853
 30
0.0
 11
513.2419442503302
 21
17.199114857512853
 31
0.0
  0
TEXT
  5
EB
330
17
100
AcDbEntity
  8
NOTE
100
AcDbText
 10
256.6209721251651
 20
18.699114857512853
 30
0.0
 40
2.5
  1
BEND 90° IN  Ri2 (bottom flange)
 72
1
 11
256.6209721251651
 21
18.699114857512853
 31
0.0
100
AcDbText
 73
1
  0
LINE
  5
EC
330
17
100
AcDbEntity
  8
BEND
100
AcDbLine
 10
0.0
 20
138.59734457253856
 30
0.0
 11
513.2419442503302
 21
138.59734457253856
 31
0.0
  0
TEXT
  5
ED
330
17
100
AcDbEntity
  8
NOTE
100
AcDbText
 10
256.6209721251651
 20
140.09734457253856
 30
0.0
 40
2.5
  1
BEND 90° IN  Ri2 (top flange)
 72
1
 11
256.6209721251651
 21
140.09734457253856
 31
0.0
100
AcDbText
 73
1
  0
TEXT
  5
EE
330
17
100
AcDbEntity
  8
NOTE
100
AcDbText
 10
0.0
 20
-10.0
 30
0.0
 40
3.0
  1
P03_WALL_HALF_REAR  AL5052-H32 2.0T  QTY 1  REV9  KETI  (ETCH:part no. only, NOTE/BEND layers: do not cut)
 11
0.0
 21
-10.0
 31
0.0
100
AcDbText
  0
ENDSEC
  0
SECTION
  2
OBJECTS
  0
DICTIONARY
  5
A
330
0
100
AcDbDictionary
281
1
  3
ACAD_COLOR
350
B
  3
ACAD_GROUP
350
C
  3
ACAD_LAYOUT
350
D
  3
ACAD_MATERIAL
350
E
  3
ACAD_MLEADERSTYLE
350
F
  3
ACAD_MLINESTYLE
350
10
  3
ACAD_PLOTSETTINGS
350
11
  3
ACAD_PLOTSTYLENAME
350
12
  3
ACAD_SCALELIST
350
14
  3
ACAD_TABLESTYLE
350
15
  3
ACAD_VISUALSTYLE
350
16
  3
EZDXF_META
350
2D
  0
DICTIONARY
  5
B
330
A
100
AcDbDictionary
281
1
  0
DICTIONARY
  5
C
330
A
100
AcDbDictionary
281
1
  0
DICTIONARY
  5
D
330
A
100
AcDbDictionary
281
1
  3
Model
350
1A
  3
Layout1
350
1E
  0
DICTIONARY
  5
E
330
A
100
AcDbDictionary
281
1
  3
ByBlock
350
1F
  3
ByLayer
350
20
  3
Global
350
21
  0
DICTIONARY
  5
F
330
A
100
AcDbDictionary
281
1
  3
Standard
350
2C
  0
DICTIONARY
  5
10
330
A
100
AcDbDictionary
281
1
  3
Standard
350
22
  0
DICTIONARY
  5
11
330
A
100
AcDbDictionary
281
1
  0
ACDBDICTIONARYWDFLT
  5
12
330
A
100
AcDbDictionary
281
1
  3
Normal
350
13
100
AcDbDictionaryWithDefault
340
13
  0
ACDBPLACEHOLDER
  5
13
330
12
  0
DICTIONARY
  5
14
330
A
100
AcDbDictionary
281
1
  0
DICTIONARY
  5
15
330
A
100
AcDbDictionary
281
1
  0
DICTIONARY
  5
16
330
A
100
AcDbDictionary
281
1
  3
2dWireframe
350
5A
  3
Basic
350
5B
  3
Brighten
350
5C
  3
ColorChange
350
5D
  3
Conceptual
350
5E
  3
Dim
350
5F
  3
EdgeColorOff
350
60
  3
Facepattern
350
61
  3
Flat
350
62
  3
FlatWithEdges
350
63
  3
Gouraud
350
64
  3
GouraudWithEdges
350
65
  3
Hidden
350
66
  3
JitterOff
350
67
  3
Linepattern
350
68
  3
Modeling
350
69
  3
OverhangOff
350
6A
  3
Realistic
350
6B
  3
Shaded
350
6C
  3
Shaded with edges
350
6D
  3
Shades of Gray
350
6E
  3
Sketchy
350
6F
  3
Thicken
350
70
  3
Wireframe
350
71
  3
X-Ray
350
72
  0
LAYOUT
  5
1A
330
D
100
AcDbPlotSettings
  1

  4
A3
  6

 40
7.5
 41
20.0
 42
7.5
 43
20.0
 44
420.0
 45
297.0
 46
0.0
 47
0.0
 48
0.0
 49
0.0
140
0.0
141
0.0
142
1.0
143
1.0
 70
1024
 72
1
 73
0
 74
5
  7

 75
16
 76
0
 77
2
 78
300
147
1.0
148
0.0
149
0.0
100
AcDbLayout
  1
Model
 70
1
 71
0
 10
0.0
 20
0.0
 11
420.0
 21
297.0
 12
0.0
 22
0.0
 32
0.0
 14
1e+20
 24
1e+20
 34
1e+20
 15
-1e+20
 25
-1e+20
 35
-1e+20
146
0.0
 13
0.0
 23
0.0
 33
0.0
 16
1.0
 26
0.0
 36
0.0
 17
0.0
 27
1.0
 37
0.0
 76
1
330
17
  0
LAYOUT
  5
1E
330
D
100
AcDbPlotSettings
  1

  4
A3
  6

 40
7.5
 41
20.0
 42
7.5
 43
20.0
 44
420.0
 45
297.0
 46
0.0
 47
0.0
 48
0.0
 49
0.0
140
0.0
141
0.0
142
1.0
143
1.0
 70
0
 72
1
 73
0
 74
5
  7

 75
16
 76
0
 77
2
 78
300
147
1.0
148
0.0
149
0.0
100
AcDbLayout
  1
Layout1
 70
1
 71
1
 10
0.0
 20
0.0
 11
420.0
 21
297.0
 12
0.0
 22
0.0
 32
0.0
 14
1e+20
 24
1e+20
 34
1e+20
 15
-1e+20
 25
-1e+20
 35
-1e+20
146
0.0
 13
0.0
 23
0.0
 33
0.0
 16
1.0
 26
0.0
 36
0.0
 17
0.0
 27
1.0
 37
0.0
 76
1
330
1B
  0
MATERIAL
  5
1F
102
{ACAD_REACTORS
330
E
102
}
330
E
100
AcDbMaterial
  1
ByBlock
  2

 70
0
 40
1.0
 71
1
 41
1.0
 91
-1023410177
 42
1.0
 72
1
  3

 73
1
 74
1
 75
1
 44
0.5
 73
0
 45
1.0
 46
1.0
 77
1
  4

 78
1
 79
1
170
1
 48
1.0
171
1
  6

172
1
173
1
174
1
140
1.0
141
1.0
175
1
  7

176
1
177
1
178
1
143
1.0
179
1
  8

270
1
271
1
272
1
145
1.0
146
1.0
273
1
  9

274
1
275
1
276
1
 42
1.0
 72
1
  3

 73
1
 74
1
 75
1
 94
63
  0
MATERIAL
  5
20
102
{ACAD_REACTORS
330
E
102
}
330
E
100
AcDbMaterial
  1
ByLayer
  2

 70
0
 40
1.0
 71
1
 41
1.0
 91
-1023410177
 42
1.0
 72
1
  3

 73
1
 74
1
 75
1
 44
0.5
 73
0
 45
1.0
 46
1.0
 77
1
  4

 78
1
 79
1
170
1
 48
1.0
171
1
  6

172
1
173
1
174
1
140
1.0
141
1.0
175
1
  7

176
1
177
1
178
1
143
1.0
179
1
  8

270
1
271
1
272
1
145
1.0
146
1.0
273
1
  9

274
1
275
1
276
1
 42
1.0
 72
1
  3

 73
1
 74
1
 75
1
 94
63
  0
MATERIAL
  5
21
102
{ACAD_REACTORS
330
E
102
}
330
E
100
AcDbMaterial
  1
Global
  2

 70
0
 40
1.0
 71
1
 41
1.0
 91
-1023410177
 42
1.0
 72
1
  3

 73
1
 74
1
 75
1
 44
0.5
 73
0
 45
1.0
 46
1.0
 77
1
  4

 78
1
 79
1
170
1
 48
1.0
171
1
  6

172
1
173
1
174
1
140
1.0
141
1.0
175
1
  7

176
1
177
1
178
1
143
1.0
179
1
  8

270
1
271
1
272
1
145
1.0
146
1.0
273
1
  9

274
1
275
1
276
1
 42
1.0
 72
1
  3

 73
1
 74
1
 75
1
 94
63
  0
MLINESTYLE
  5
22
102
{ACAD_REACTORS
330
10
102
}
330
10
100
AcDbMlineStyle
  2
Standard
 70
0
  3

 62
256
 51
90.0
 52
90.0
 71
2
 49
0.5
 62
256
  6
BYLAYER
 49
-0.5
 62
256
  6
BYLAYER
  0
MLEADERSTYLE
  5
2C
102
{ACAD_REACTORS
330
F
102
}
330
F
100
AcDbMLeaderStyle
179
2
170
2
171
1
172
0
 90
2
 40
0.0
 41
0.0
173
1
 91
-1056964608
 92
-2
290
1
 42
2.0
291
1
 43
8.0
  3
Standard
 44
4.0
300

342
29
174
1
175
1
176
0
178
1
 93
-1056964608
 45
4.0
292
0
297
0
 46
4.0
 94
-1056964608
 47
1.0
 49
1.0
140
1.0
294
1
141
0.0
177
0
142
1.0
295
0
296
0
143
3.75
271
0
272
9
273
9
  0
DICTIONARY
  5
2D
330
A
100
AcDbDictionary
280
1
281
1
  3
CREATED_BY_EZDXF
350
2E
  3
WRITTEN_BY_EZDXF
350
F1
  0
DICTIONARYVAR
  5
2E
330
2D
100
DictionaryVariables
280
0
  1
1.4.4 @ 2026-10-01T07:25:44.086664+00:00
  0
VISUALSTYLE
  5
5A
102
{ACAD_REACTORS
330
16
102
}
330
16
100
AcDbVisualStyle
  2
2dWireframe
 70
4
 90
0
 40
0.6
 62
7
290
0
291
0
  0
VISUALSTYLE
  5
5B
102
{ACAD_REACTORS
330
16
102
}
330
16
100
AcDbVisualStyle
  2
Basic
 70
7
 90
1
 40
0.6
 62
7
290
0
291
1
  0
VISUALSTYLE
  5
5C
102
{ACAD_REACTORS
330
16
102
}
330
16
100
AcDbVisualStyle
  2
Brighten
 70
12
 90
2
 40
0.6
 62
7
290
0
291
1
  0
VISUALSTYLE
  5
5D
102
{ACAD_REACTORS
330
16
102
}
330
16
100
AcDbVisualStyle
  2
ColorChange
 70
16
 90
2
 40
0.6
 62
8
290
0
291
1
  0
VISUALSTYLE
  5
5E
102
{ACAD_REACTORS
330
16
102
}
330
16
100
AcDbVisualStyle
  2
Conceptual
 70
9
 90
3
 40
0.6
 62
7
290
0
291
0
  0
VISUALSTYLE
  5
5F
102
{ACAD_REACTORS
330
16
102
}
330
16
100
AcDbVisualStyle
  2
Dim
 70
11
 90
2
 40
0.6
 62
7
290
0
291
1
  0
VISUALSTYLE
  5
60
102
{ACAD_REACTORS
330
16
102
}
330
16
100
AcDbVisualStyle
  2
EdgeColorOff
 70
22
 90
2
 40
0.6
 62
7
290
0
291
1
  0
VISUALSTYLE
  5
61
102
{ACAD_REACTORS
330
16
102
}
330
16
100
AcDbVisualStyle
  2
Facepattern
 70
15
 90
2
 40
0.6
 62
7
290
0
291
1
  0
VISUALSTYLE
  5
62
102
{ACAD_REACTORS
330
16
102
}
330
16
100
AcDbVisualStyle
  2
Flat
 70
0
 90
2
 40
0.6
 62
7
290
0
291
1
  0
VISUALSTYLE
  5
63
102
{ACAD_REACTORS
330
16
102
}
330
16
100
AcDbVisualStyle
  2
FlatWithEdges
 70
1
 90
2
 40
0.6
 62
7
290
0
291
1
  0
VISUALSTYLE
  5
64
102
{ACAD_REACTORS
330
16
102
}
330
16
100
AcDbVisualStyle
  2
Gouraud
 70
2
 90
2
 40
0.6
 62
7
290
0
291
1
  0
VISUALSTYLE
  5
65
102
{ACAD_REACTORS
330
16
102
}
330
16
100
AcDbVisualStyle
  2
GouraudWithEdges
 70
3
 90
2
 40
0.6
 62
7
290
0
291
1
  0
VISUALSTYLE
  5
66
102
{ACAD_REACTORS
330
16
102
}
330
16
100
AcDbVisualStyle
  2
Hidden
 70
6
 90
1
 40
0.6
 62
7
290
0
291
0
  0
VISUALSTYLE
  5
67
102
{ACAD_REACTORS
330
16
102
}
330
16
100
AcDbVisualStyle
  2
JitterOff
 70
20
 90
2
 40
0.6
 62
7
290
0
291
1
  0
VISUALSTYLE
  5
68
102
{ACAD_REACTORS
330
16
102
}
330
16
100
AcDbVisualStyle
  2
Linepattern
 70
14
 90
2
 40
0.6
 62
7
290
0
291
1
  0
VISUALSTYLE
  5
69
102
{ACAD_REACTORS
330
16
102
}
330
16
100
AcDbVisualStyle
  2
Modeling
 70
10
 90
2
 40
0.6
 62
7
290
0
291
0
  0
VISUALSTYLE
  5
6A
102
{ACAD_REACTORS
330
16
102
}
330
16
100
AcDbVisualStyle
  2
OverhangOff
 70
21
 90
2
 40
0.6
 62
7
290
0
291
1
  0
VISUALSTYLE
  5
6B
102
{ACAD_REACTORS
330
16
102
}
330
16
100
AcDbVisualStyle
  2
Realistic
 70
8
 90
2
 40
0.6
 62
7
290
0
291
0
  0
VISUALSTYLE
  5
6C
102
{ACAD_REACTORS
330
16
102
}
330
16
100
AcDbVisualStyle
  2
Shaded
 70
27
 90
2
 40
0.6
 62
7
290
0
291
0
  0
VISUALSTYLE
  5
6D
102
{ACAD_REACTORS
330
16
102
}
330
16
100
AcDbVisualStyle
  2
Shaded with edges
 70
26
 90
2
 40
0.6
 62
7
290
0
291
0
  0
VISUALSTYLE
  5
6E
102
{ACAD_REACTORS
330
16
102
}
330
16
100
AcDbVisualStyle
  2
Shades of Gray
 70
23
 90
2
 40
0.6
 62
7
290
0
291
0
  0
VISUALSTYLE
  5
6F
102
{ACAD_REACTORS
330
16
102
}
330
16
100
AcDbVisualStyle
  2
Sketchy
 70
24
 90
1
 40
0.6
 62
7
290
0
291
0
  0
VISUALSTYLE
  5
70
102
{ACAD_REACTORS
330
16
102
}
330
16
100
AcDbVisualStyle
  2
Thicken
 70
13
 90
2
 40
0.6
 62
7
290
0
291
1
  0
VISUALSTYLE
  5
71
102
{ACAD_REACTORS
330
16
102
}
330
16
100
AcDbVisualStyle
  2
Wireframe
 70
5
 90
0
 40
0.6
 62
7
290
0
291
0
  0
VISUALSTYLE
  5
72
102
{ACAD_REACTORS
330
16
102
}
330
16
100
AcDbVisualStyle
  2
X-Ray
 70
25
 90
2
 40
0.5
 62
7
290
0
291
0
  0
DICTIONARYVAR
  5
F1
330
2D
100
DictionaryVariables
280
0
  1
1.4.4 @ 2026-10-01T07:25:44.100027+00:00
  0
ENDSEC
  0
EOF
